<svg width="24" height="24" viewBox="0 0 24 24" fill="none" xmlns="http://www.w3.org/2000/svg">
<path d="M12.002 -0.000976562C15.1846 -0.000976562 18.2368 1.26331 20.4872 3.51374C22.7377 5.76418 24.002 8.81643 24.002 11.999C24.002 15.1816 22.7377 18.2339 20.4872 20.4843C18.2368 22.7347 15.1846 23.999 12.002 23.999C8.81936 23.999 5.76711 22.7347 3.51667 20.4843C1.26624 18.2339 0.00195313 15.1816 0.00195312 11.999C0.00195313 8.81643 1.26624 5.76418 3.51667 3.51374C5.76711 1.26331 8.81936 -0.000976562 12.002 -0.000976562ZM10.877 5.62402V11.999C10.877 12.374 11.0645 12.7256 11.3785 12.9365L15.8785 15.9365C16.3941 16.2834 17.0926 16.1428 17.4395 15.6225C17.7863 15.1021 17.6457 14.4084 17.1254 14.0615L13.127 11.399V5.62402C13.127 5.00059 12.6254 4.49902 12.002 4.49902C11.3785 4.49902 10.877 5.00059 10.877 5.62402Z" fill="#FF9641"/>
</svg>
