<svg width="12" height="17" viewBox="0 0 12 17" fill="none" xmlns="http://www.w3.org/2000/svg">
<path d="M1.5 0.375C0.671875 0.375 0 1.04688 0 1.875V14.875C0 15.7031 0.671875 16.375 1.5 16.375H4.5V13.875C4.5 13.0469 5.17188 12.375 6 12.375C6.82812 12.375 7.5 13.0469 7.5 13.875V16.375H10.5C11.3281 16.375 12 15.7031 12 14.875V1.875C12 1.04688 11.3281 0.375 10.5 0.375H1.5ZM2 7.875C2 7.6 2.225 7.375 2.5 7.375H3.5C3.775 7.375 4 7.6 4 7.875V8.875C4 9.15 3.775 9.375 3.5 9.375H2.5C2.225 9.375 2 9.15 2 8.875V7.875ZM5.5 7.375H6.5C6.775 7.375 7 7.6 7 7.875V8.875C7 9.15 6.775 9.375 6.5 9.375H5.5C5.225 9.375 5 9.15 5 8.875V7.875C5 7.6 5.225 7.375 5.5 7.375ZM8 7.875C8 7.6 8.225 7.375 8.5 7.375H9.5C9.775 7.375 10 7.6 10 7.875V8.875C10 9.15 9.775 9.375 9.5 9.375H8.5C8.225 9.375 8 9.15 8 8.875V7.875ZM2.5 3.375H3.5C3.775 3.375 4 3.6 4 3.875V4.875C4 5.15 3.775 5.375 3.5 5.375H2.5C2.225 5.375 2 5.15 2 4.875V3.875C2 3.6 2.225 3.375 2.5 3.375ZM5 3.875C5 3.6 5.225 3.375 5.5 3.375H6.5C6.775 3.375 7 3.6 7 3.875V4.875C7 5.15 6.775 5.375 6.5 5.375H5.5C5.225 5.375 5 5.15 5 4.875V3.875ZM8.5 3.375H9.5C9.775 3.375 10 3.6 10 3.875V4.875C10 5.15 9.775 5.375 9.5 5.375H8.5C8.225 5.375 8 5.15 8 4.875V3.875C8 3.6 8.225 3.375 8.5 3.375Z" fill="#E5E7EB"/>
</svg>
