<svg width="29" height="29" viewBox="0 0 29 29" fill="none" xmlns="http://www.w3.org/2000/svg">
<path d="M0.902344 19.5435C2.95109 25.0651 8.26596 29.0001 14.5005 29.0001C20.7349 29.0001 26.0498 25.0651 28.0986 19.5435L14.5005 18.2827L0.902344 19.5435Z" fill="#FFDA44"/>
<path d="M14.5005 0C8.26596 0 2.95109 3.93494 0.902344 9.45655L14.5005 10.7174L28.0986 9.45649C26.0498 3.93494 20.7349 0 14.5005 0Z" fill="black"/>
<path d="M0.901889 9.45654C0.319057 11.0274 0 12.7263 0 14.5C0 16.2736 0.319057 17.9726 0.901889 19.5434H28.0982C28.681 17.9726 29 16.2736 29 14.5C29 12.7263 28.681 11.0274 28.0981 9.45654H0.901889Z" fill="#D80027"/>
</svg>
