<svg width="20" height="21" viewBox="0 0 20 21" fill="none" xmlns="http://www.w3.org/2000/svg">
<g clip-path="url(#clip0_1006_565)">
<g clip-path="url(#clip1_1006_565)">
<path d="M19.6875 10.5C19.6875 5.14844 15.3516 0.8125 10 0.8125C4.64844 0.8125 0.3125 5.14844 0.3125 10.5C0.3125 15.3352 3.85508 19.343 8.48633 20.0703V13.3004H6.02539V10.5H8.48633V8.36562C8.48633 5.93789 9.93164 4.59687 12.1453 4.59687C13.2055 4.59687 14.3141 4.78594 14.3141 4.78594V7.16875H13.0922C11.8891 7.16875 11.5137 7.91562 11.5137 8.68164V10.5H14.2004L13.7707 13.3004H11.5137V20.0703C16.1449 19.343 19.6875 15.3352 19.6875 10.5Z" fill="#9CA3AF"/>
</g>
</g>
<defs>
<clipPath id="clip0_1006_565">
<rect width="20" height="20" fill="white" transform="translate(0 0.5)"/>
</clipPath>
<clipPath id="clip1_1006_565">
<path d="M0 0.5H20V20.5H0V0.5Z" fill="white"/>
</clipPath>
</defs>
</svg>
