<svg width="14" height="17" viewBox="0 0 14 17" fill="none" xmlns="http://www.w3.org/2000/svg">
<path d="M4.97813 0.608016C5.22188 0.379891 5.6 0.383016 5.84375 0.611141C6.70625 1.42052 7.51563 2.29239 8.27188 3.23614C8.61563 2.78614 9.00625 2.29552 9.42813 1.89552C9.675 1.66427 10.0563 1.66427 10.3031 1.89864C11.3844 2.92989 12.3 4.29239 12.9438 5.58614C13.5781 6.86114 14 8.16427 14 9.08302C14 13.0705 10.8813 16.4393 7 16.4393C3.075 16.4393 0 13.0674 0 9.07989C0 7.87989 0.55625 6.41427 1.41875 4.96427C2.29063 3.49239 3.52188 1.95802 4.97813 0.608016ZM7.05312 13.4393C7.84375 13.4393 8.54375 13.2205 9.20312 12.783C10.5188 11.8643 10.8719 10.0268 10.0813 8.58302C9.94063 8.30177 9.58125 8.28302 9.37813 8.52052L8.59062 9.43614C8.38437 9.67364 8.0125 9.66739 7.81875 9.42052C7.30312 8.76427 6.38125 7.59239 5.85625 6.92677C5.65937 6.67677 5.28437 6.67364 5.08437 6.92364C4.02812 8.25177 3.49688 9.08927 3.49688 10.0299C3.5 12.1705 5.08125 13.4393 7.05312 13.4393Z" fill="#E5E7EB"/>
</svg>
