<svg width="108" height="108" viewBox="0 0 108 108" fill="none" xmlns="http://www.w3.org/2000/svg">
<g filter="url(#filter0_f_1096_123)">
<path d="M4 29C4 15.1929 15.1929 4 29 4H79C92.8071 4 104 15.1929 104 29V79C104 92.8071 92.8071 104 79 104H4V29Z" fill="black" fill-opacity="0.5"/>
</g>
<path d="M4 29C4 15.1929 15.1929 4 29 4H79C92.8071 4 104 15.1929 104 29V79C104 92.8071 92.8071 104 79 104H4V29Z" fill="url(#paint0_linear_1096_123)"/>
<path d="M62.7805 41.7257C62.7805 41.5062 62.6009 41.3266 62.3814 41.3266H43.2222C43.0027 41.3266 42.8231 41.5062 42.8231 41.7257V44.1206C42.8231 44.3401 43.0027 44.5197 43.2222 44.5197H62.3814C62.6009 44.5197 62.7805 44.3401 62.7805 44.1206V41.7257ZM62.3814 48.5112H43.2222C43.0027 48.5112 42.8231 48.6909 42.8231 48.9104V51.3053C42.8231 51.5248 43.0027 51.7044 43.2222 51.7044H62.3814C62.6009 51.7044 62.7805 51.5248 62.7805 51.3053V48.9104C62.7805 48.6909 62.6009 48.5112 62.3814 48.5112ZM52.4027 55.6959H43.2222C43.0027 55.6959 42.8231 55.8755 42.8231 56.0951V58.49C42.8231 58.7095 43.0027 58.8891 43.2222 58.8891H52.4027C52.6222 58.8891 52.8018 58.7095 52.8018 58.49V56.0951C52.8018 55.8755 52.6222 55.6959 52.4027 55.6959ZM50.0078 71.0631H38.8316V35.938H66.772V53.1014C66.772 53.321 66.9516 53.5006 67.1712 53.5006H69.9652C70.1847 53.5006 70.3644 53.321 70.3644 53.1014V33.9423C70.3644 33.0592 69.6509 32.3457 68.7678 32.3457H36.8359C35.9527 32.3457 35.2393 33.0592 35.2393 33.9423V73.0589C35.2393 73.942 35.9527 74.6555 36.8359 74.6555H50.0078C50.2273 74.6555 50.4069 74.4759 50.4069 74.2563V71.4623C50.4069 71.2428 50.2273 71.0631 50.0078 71.0631ZM67.8098 67.3511C69.2567 66.0389 70.1648 64.1429 70.1648 62.0324C70.1648 58.0659 66.9467 54.8477 62.9801 54.8477C59.0136 54.8477 55.7954 58.0659 55.7954 62.0324C55.7954 64.1429 56.7035 66.0389 58.1504 67.3511C55.3065 68.9726 53.3506 71.9762 53.201 75.4388C53.191 75.6633 53.3756 75.8529 53.6001 75.8529H56C56.2095 75.8529 56.3842 75.6883 56.3991 75.4737C56.5937 72.0211 59.4726 69.267 62.9801 69.267C66.4876 69.267 69.3665 72.0211 69.5611 75.4737C69.5711 75.6833 69.7457 75.8529 69.9602 75.8529H72.3601C72.5896 75.8529 72.7692 75.6633 72.7593 75.4388C72.6146 71.9712 70.6537 68.9726 67.8098 67.3511ZM62.9801 58.0409C65.1854 58.0409 66.9716 59.8271 66.9716 62.0324C66.9716 64.2377 65.1854 66.0239 62.9801 66.0239C60.7748 66.0239 58.9886 64.2377 58.9886 62.0324C58.9886 59.8271 60.7748 58.0409 62.9801 58.0409Z" fill="#E5E7EB"/>
<defs>
<filter id="filter0_f_1096_123" x="0" y="0" width="108" height="108" filterUnits="userSpaceOnUse" color-interpolation-filters="sRGB">
<feFlood flood-opacity="0" result="BackgroundImageFix"/>
<feBlend mode="normal" in="SourceGraphic" in2="BackgroundImageFix" result="shape"/>
<feGaussianBlur stdDeviation="2" result="effect1_foregroundBlur_1096_123"/>
</filter>
<linearGradient id="paint0_linear_1096_123" x1="12.5" y1="19.9282" x2="80.2932" y2="106.341" gradientUnits="userSpaceOnUse">
<stop stop-color="#FF9641"/>
<stop offset="1" stop-color="#22C55E"/>
</linearGradient>
</defs>
</svg>
