<svg width="108" height="108" viewBox="0 0 108 108" fill="none" xmlns="http://www.w3.org/2000/svg">
<g filter="url(#filter0_f_1096_121)">
<path d="M4 29C4 15.1929 15.1929 4 29 4H79C92.8071 4 104 15.1929 104 29V79C104 92.8071 92.8071 104 79 104H4V29Z" fill="black" fill-opacity="0.5"/>
</g>
<path d="M4 29C4 15.1929 15.1929 4 29 4H79C92.8071 4 104 15.1929 104 29V79C104 92.8071 92.8071 104 79 104H4V29Z" fill="url(#paint0_linear_1096_121)"/>
<path d="M27.75 54.125L39.625 32.75L51.5 54.125H27.75ZM39.625 77.875C37.0125 77.875 34.776 76.9448 32.9156 75.0844C31.0552 73.224 30.125 70.9875 30.125 68.375C30.125 65.7625 31.0552 63.526 32.9156 61.6656C34.776 59.8052 37.0125 58.875 39.625 58.875C42.2375 58.875 44.474 59.8052 46.3344 61.6656C48.1948 63.526 49.125 65.7625 49.125 68.375C49.125 70.9875 48.1948 73.224 46.3344 75.0844C44.474 76.9448 42.2375 77.875 39.625 77.875ZM53.875 77.875V58.875H72.875V77.875H53.875ZM63.375 54.125C61.1188 52.225 59.229 50.6219 57.7059 49.3156C56.1827 48.0094 54.9651 46.8615 54.0531 45.8719C53.1411 44.8823 52.488 43.9521 52.0938 43.0813C51.6995 42.2104 51.5016 41.2802 51.5 40.2906C51.5 38.5094 52.1238 37.0052 53.3715 35.7781C54.6192 34.551 56.1724 33.9375 58.0312 33.9375C59.1 33.9375 60.0999 34.1853 61.0309 34.6809C61.9619 35.1765 62.7433 35.8589 63.375 36.7281C64.0083 35.8573 64.7905 35.1749 65.7215 34.6809C66.6525 34.1869 67.6516 33.9391 68.7188 33.9375C70.5792 33.9375 72.1332 34.551 73.3809 35.7781C74.6285 37.0052 75.2516 38.5094 75.25 40.2906C75.25 41.2802 75.0521 42.2104 74.6562 43.0813C74.2604 43.9521 73.6073 44.8823 72.6969 45.8719C71.7865 46.8615 70.5697 48.0094 69.0465 49.3156C67.5233 50.6219 65.6328 52.225 63.375 54.125Z" fill="#E5E7EB"/>
<defs>
<filter id="filter0_f_1096_121" x="0" y="0" width="108" height="108" filterUnits="userSpaceOnUse" color-interpolation-filters="sRGB">
<feFlood flood-opacity="0" result="BackgroundImageFix"/>
<feBlend mode="normal" in="SourceGraphic" in2="BackgroundImageFix" result="shape"/>
<feGaussianBlur stdDeviation="2" result="effect1_foregroundBlur_1096_121"/>
</filter>
<linearGradient id="paint0_linear_1096_121" x1="7.5" y1="104" x2="104" y2="22.5" gradientUnits="userSpaceOnUse">
<stop stop-color="#FF9641"/>
<stop offset="1" stop-color="#22C55E"/>
</linearGradient>
</defs>
</svg>
