<svg width="14" height="23" viewBox="0 0 14 23" fill="none" xmlns="http://www.w3.org/2000/svg">
<path d="M0.4 11.15C0.4 10.8833 0.441334 10.6333 0.524 10.4C0.606667 10.1667 0.748668 9.95 0.950001 9.75L10.15 0.549999C10.5167 0.183333 10.9833 0 11.55 0C12.1167 0 12.5833 0.183333 12.95 0.549999C13.3167 0.916666 13.5 1.38333 13.5 1.95C13.5 2.51667 13.3167 2.98333 12.95 3.35L5.15 11.15L12.95 18.95C13.3167 19.3167 13.5 19.7833 13.5 20.35C13.5 20.9167 13.3167 21.3833 12.95 21.75C12.5833 22.1167 12.1167 22.3 11.55 22.3C10.9833 22.3 10.5167 22.1167 10.15 21.75L0.950001 12.55C0.750001 12.35 0.608 12.1333 0.524 11.9C0.440001 11.6667 0.398666 11.4167 0.4 11.15Z" fill="#F9FAFB"/>
</svg>
