<svg width="24" height="24" viewBox="0 0 24 24" fill="none" xmlns="http://www.w3.org/2000/svg">
<path d="M0 12C0 5.37258 5.37258 0 12 0C18.6274 0 24 5.37258 24 12C24 18.6274 18.6274 24 12 24C5.37258 24 0 18.6274 0 12Z" fill="#FF9641"/>
<path d="M17.995 8.25635C18.3368 8.59814 18.3368 9.15322 17.995 9.49502L10.995 16.495C10.6532 16.8368 10.0981 16.8368 9.75635 16.495L6.25635 12.995C5.91455 12.6532 5.91455 12.0981 6.25635 11.7563C6.59814 11.4146 7.15322 11.4146 7.49502 11.7563L10.3771 14.6356L16.7591 8.25635C17.1009 7.91455 17.656 7.91455 17.9978 8.25635H17.995Z" fill="white"/>
</svg>
