<svg width="40" height="40" viewBox="0 0 40 40" fill="none" xmlns="http://www.w3.org/2000/svg">
<path d="M8 0.5H32C36.1421 0.5 39.5 3.85786 39.5 8V32C39.5 36.1421 36.1421 39.5 32 39.5H8C3.85786 39.5 0.5 36.1421 0.5 32V8C0.5 3.85786 3.85786 0.5 8 0.5Z" stroke="#FF9641"/>
<path d="M20.0055 16.4117C18.018 16.4117 16.4148 18.0148 16.4148 20.0023C16.4148 21.9898 18.018 23.593 20.0055 23.593C21.993 23.593 23.5961 21.9898 23.5961 20.0023C23.5961 18.0148 21.993 16.4117 20.0055 16.4117ZM20.0055 22.3367C18.7211 22.3367 17.6711 21.2898 17.6711 20.0023C17.6711 18.7148 18.718 17.668 20.0055 17.668C21.293 17.668 22.3398 18.7148 22.3398 20.0023C22.3398 21.2898 21.2898 22.3367 20.0055 22.3367ZM24.5805 16.2648C24.5805 16.7305 24.2055 17.1023 23.743 17.1023C23.2773 17.1023 22.9055 16.7273 22.9055 16.2648C22.9055 15.8023 23.2805 15.4273 23.743 15.4273C24.2055 15.4273 24.5805 15.8023 24.5805 16.2648ZM26.9586 17.1148C26.9055 15.993 26.6492 14.9992 25.8273 14.1805C25.0086 13.3617 24.0148 13.1055 22.893 13.0492C21.7367 12.9836 18.2711 12.9836 17.1148 13.0492C15.9961 13.1023 15.0023 13.3586 14.1805 14.1773C13.3586 14.9961 13.1055 15.9898 13.0492 17.1117C12.9836 18.268 12.9836 21.7336 13.0492 22.8898C13.1023 24.0117 13.3586 25.0055 14.1805 25.8242C15.0023 26.643 15.993 26.8992 17.1148 26.9555C18.2711 27.0211 21.7367 27.0211 22.893 26.9555C24.0148 26.9023 25.0086 26.6461 25.8273 25.8242C26.6461 25.0055 26.9023 24.0117 26.9586 22.8898C27.0242 21.7336 27.0242 18.2711 26.9586 17.1148ZM25.4648 24.1305C25.2211 24.743 24.7492 25.2148 24.1336 25.4617C23.2117 25.8273 21.0242 25.743 20.0055 25.743C18.9867 25.743 16.7961 25.8242 15.8773 25.4617C15.2648 25.218 14.793 24.7461 14.5461 24.1305C14.1805 23.2086 14.2648 21.0211 14.2648 20.0023C14.2648 18.9836 14.1836 16.793 14.5461 15.8742C14.7898 15.2617 15.2617 14.7898 15.8773 14.543C16.7992 14.1773 18.9867 14.2617 20.0055 14.2617C21.0242 14.2617 23.2148 14.1805 24.1336 14.543C24.7461 14.7867 25.218 15.2586 25.4648 15.8742C25.8305 16.7961 25.7461 18.9836 25.7461 20.0023C25.7461 21.0211 25.8305 23.2117 25.4648 24.1305Z" fill="#FF9641"/>
</svg>
