<svg width="42" height="42" viewBox="0 0 42 42" fill="none" xmlns="http://www.w3.org/2000/svg">
<path d="M33 0.5C37.6944 0.5 41.5 4.30558 41.5 9V33C41.5 37.6944 37.6944 41.5 33 41.5H9C4.30558 41.5 0.5 37.6944 0.5 33V9C0.5 4.30558 4.30558 0.5 9 0.5H33Z" stroke="#FF9641"/>
<g clip-path="url(#clip0_1113_128)">
<path d="M28.75 21C28.75 16.7188 25.2812 13.25 21 13.25C16.7188 13.25 13.25 16.7188 13.25 21C13.25 24.8681 16.0841 28.0744 19.7891 28.6562V23.2403H17.8203V21H19.7891V19.2925C19.7891 17.3503 20.9453 16.2775 22.7163 16.2775C23.5644 16.2775 24.4513 16.4288 24.4513 16.4288V18.335H23.4738C22.5113 18.335 22.2109 18.9325 22.2109 19.5453V21H24.3603L24.0166 23.2403H22.2109V28.6562C25.9159 28.0744 28.75 24.8681 28.75 21Z" fill="#FF9641"/>
</g>
<defs>
<clipPath id="clip0_1113_128">
<path d="M13 13H29V29H13V13Z" fill="white"/>
</clipPath>
</defs>
</svg>
