<svg width="60" height="60" viewBox="0 0 60 60" fill="none" xmlns="http://www.w3.org/2000/svg">
<path d="M15 52.5C13.59 52.5 12.4042 52.0192 11.4425 51.0575C10.4808 50.0958 10 48.91 10 47.5V44.615C10 43.505 10.3958 42.555 11.1875 41.765C11.9792 40.975 12.9292 40.5792 14.0375 40.5775H17.5V11.54C17.5 10.4283 17.8958 9.4775 18.6875 8.6875C19.4792 7.8975 20.4292 7.50167 21.5375 7.5H45.9625C47.0725 7.5 48.0225 7.89583 48.8125 8.6875C49.6025 9.47917 49.9983 10.4292 50 11.5375V47.5C50 48.91 49.5192 50.0958 48.5575 51.0575C47.5958 52.0192 46.41 52.5 45 52.5H15ZM45 50C45.7083 50 46.3025 49.76 46.7825 49.28C47.2625 48.8 47.5017 48.2067 47.5 47.5V11.54C47.5 11.09 47.3558 10.7208 47.0675 10.4325C46.7792 10.1442 46.4108 10 45.9625 10H21.5375C21.0892 10 20.7208 10.1442 20.4325 10.4325C20.1442 10.7208 20 11.09 20 11.54V40.575H38.4625C39.5725 40.575 40.5225 40.97 41.3125 41.76C42.1025 42.55 42.4983 43.5017 42.5 44.615V47.5C42.5 48.2083 42.74 48.8025 43.22 49.2825C43.7 49.7625 44.2933 50.0017 45 50ZM24.7125 20.9625C24.3575 20.9625 24.06 20.8425 23.82 20.6025C23.5817 20.3625 23.4625 20.065 23.4625 19.71C23.4625 19.355 23.5817 19.0583 23.82 18.82C24.0583 18.5817 24.3558 18.4625 24.7125 18.4625H42.7875C43.1425 18.4625 43.44 18.5825 43.68 18.8225C43.92 19.0625 44.0392 19.3592 44.0375 19.7125C44.0358 20.0658 43.9167 20.3625 43.68 20.6025C43.4433 20.8425 43.1458 20.9625 42.7875 20.9625H24.7125ZM24.7125 27.885C24.3575 27.885 24.06 27.765 23.82 27.525C23.5817 27.285 23.4625 26.9875 23.4625 26.6325C23.4625 26.2775 23.5817 25.9808 23.82 25.7425C24.0583 25.5042 24.3558 25.385 24.7125 25.385H42.7875C43.1425 25.385 43.44 25.505 43.68 25.745C43.92 25.985 44.0392 26.2825 44.0375 26.6375C44.0358 26.9925 43.9167 27.2892 43.68 27.5275C43.4433 27.7658 43.1458 27.885 42.7875 27.885H24.7125ZM15 50H40V44.615C40 44.1667 39.8558 43.7983 39.5675 43.51C39.2792 43.2217 38.9108 43.0775 38.4625 43.0775H14.0375C13.5892 43.0775 13.2208 43.2217 12.9325 43.51C12.6442 43.7983 12.5 44.1667 12.5 44.615V47.5C12.5 48.2083 12.74 48.8025 13.22 49.2825C13.7 49.7625 14.2933 50.0017 15 50ZM15 50H12.5H40H15Z" fill="#FF9641"/>
</svg>
