<svg width="50" height="50" viewBox="0 0 50 50" fill="none" xmlns="http://www.w3.org/2000/svg">
<g clip-path="url(#clip0_941_3635)">
<path opacity="0.2" d="M6.46637 14.5732C6.32466 14.8136 6.24995 15.0875 6.25 15.3666V34.6327C6.25 34.9099 6.32377 35.1822 6.46374 35.4215C6.6037 35.6608 6.80483 35.8586 7.04647 35.9945L24.234 45.6625C24.4678 45.7941 24.7317 45.8632 25 45.8631L25.002 45.8632L25.1854 24.9996L6.46641 14.5733L6.46637 14.5732Z" fill="#FF9641"/>
<path d="M43.75 34.6333V15.3672C43.75 15.0899 43.6762 14.8177 43.5363 14.5784C43.3963 14.339 43.1952 14.1413 42.9535 14.0053L25.766 4.33738C25.5322 4.20583 25.2683 4.13672 25 4.13672C24.7317 4.13672 24.4678 4.20583 24.234 4.33738L7.04647 14.0053C6.80483 14.1413 6.6037 14.339 6.46374 14.5784C6.32377 14.8177 6.25 15.0899 6.25 15.3672V34.6333C6.25 34.9105 6.32377 35.1828 6.46374 35.4221C6.6037 35.6614 6.80483 35.8592 7.04647 35.9951L24.234 45.6631C24.4678 45.7946 24.7317 45.8638 25 45.8638C25.2683 45.8638 25.5322 45.7946 25.766 45.6631L42.9535 35.9951C43.1952 35.8592 43.3963 35.6614 43.5363 35.4221C43.6762 35.1828 43.75 34.9105 43.75 34.6333Z" stroke="#FF9641" stroke-width="2.5" stroke-linecap="round" stroke-linejoin="round"/>
<path d="M34.5746 29.7873V19.6311L15.625 9.17969" stroke="#FF9641" stroke-width="2.5" stroke-linecap="round" stroke-linejoin="round"/>
<path d="M43.535 14.5752L25.1857 24.9996L6.4668 14.5732" stroke="#FF9641" stroke-width="2.5" stroke-linecap="round" stroke-linejoin="round"/>
<path d="M25.1853 25L25.002 45.8635" stroke="#FF9641" stroke-width="2.5" stroke-linecap="round" stroke-linejoin="round"/>
</g>
<defs>
<clipPath id="clip0_941_3635">
<rect width="50" height="50" fill="white"/>
</clipPath>
</defs>
</svg>
