<svg width="42" height="42" viewBox="0 0 42 42" fill="none" xmlns="http://www.w3.org/2000/svg">
<path d="M33 0.5C37.6944 0.5 41.5 4.30558 41.5 9V33C41.5 37.6944 37.6944 41.5 33 41.5H9C4.30558 41.5 0.5 37.6944 0.5 33V9C0.5 4.30558 4.30558 0.5 9 0.5H33Z" stroke="#FF9641"/>
<path d="M27.3553 18.2386C27.3655 18.3807 27.3655 18.5228 27.3655 18.665C27.3655 23 24.066 27.9949 18.0355 27.9949C16.1777 27.9949 14.4518 27.4568 13 26.5228C13.264 26.5533 13.5178 26.5634 13.7919 26.5634C15.3248 26.5634 16.736 26.0457 17.8629 25.1624C16.4213 25.132 15.2132 24.1878 14.7969 22.8883C15 22.9187 15.203 22.9391 15.4162 22.9391C15.7107 22.9391 16.0051 22.8984 16.2792 22.8274C14.7767 22.5228 13.6497 21.203 13.6497 19.6091V19.5685C14.0863 19.8122 14.5939 19.9645 15.1319 19.9847C14.2487 19.3959 13.67 18.3908 13.67 17.2538C13.67 16.6447 13.8324 16.0863 14.1167 15.599C15.7309 17.5888 18.1573 18.8883 20.8781 19.0304C20.8274 18.7868 20.7969 18.533 20.7969 18.2792C20.7969 16.4721 22.2588 15 24.0761 15C25.0203 15 25.873 15.3959 26.472 16.0355C27.2131 15.8934 27.9238 15.6193 28.5533 15.2437C28.3096 16.0051 27.7918 16.6447 27.1116 17.0508C27.7715 16.9797 28.4111 16.7969 28.9999 16.5432C28.5533 17.1929 27.9949 17.7715 27.3553 18.2386Z" fill="#FF9641"/>
</svg>
