<svg width="58" height="58" viewBox="0 0 58 58" fill="none" xmlns="http://www.w3.org/2000/svg">
<g clip-path="url(#clip0_941_3618)">
<path opacity="0.2" d="M29 36.25C37.0081 36.25 43.5 29.7581 43.5 21.75C43.5 13.7419 37.0081 7.25 29 7.25C20.9919 7.25 14.5 13.7419 14.5 21.75C14.5 29.7581 20.9919 36.25 29 36.25Z" fill="#FF9641"/>
<path d="M39.875 12.6875H50.75" stroke="#FF9641" stroke-width="2.5" stroke-linecap="round" stroke-linejoin="round"/>
<path d="M45.3125 7.25V18.125" stroke="#FF9641" stroke-width="2.5" stroke-linecap="round" stroke-linejoin="round"/>
<path d="M7.02051 48.9354C9.24889 45.0783 12.4531 41.8755 16.3111 39.6488C20.1692 37.4222 24.5453 36.25 28.9998 36.25C33.4543 36.25 37.8304 37.4223 41.6884 39.6491C45.5465 41.8759 48.7506 45.0787 50.9789 48.9358" stroke="#FF9641" stroke-width="2.5" stroke-linecap="round" stroke-linejoin="round"/>
<path d="M42.6051 26.7758C41.6359 29.3928 39.9317 31.6742 37.6972 33.3461C35.4628 35.018 32.7932 36.0092 30.009 36.2007C27.2249 36.3921 24.4447 35.7756 22.0025 34.4253C19.5602 33.075 17.5598 31.0483 16.2415 28.5886C14.9232 26.1289 14.343 23.3409 14.5708 20.5595C14.7986 17.7782 15.8246 15.1217 17.5255 12.9093C19.2264 10.6969 21.53 9.02259 24.1594 8.0876C26.7888 7.15261 29.6322 6.99667 32.3481 7.63852" stroke="#FF9641" stroke-width="2.5" stroke-linecap="round" stroke-linejoin="round"/>
</g>
<defs>
<clipPath id="clip0_941_3618">
<rect width="58" height="58" fill="white"/>
</clipPath>
</defs>
</svg>
