<svg width="48" height="48" viewBox="0 0 48 48" fill="none" xmlns="http://www.w3.org/2000/svg">
<path d="M0 8C0 3.58172 3.58172 0 8 0H40C44.4183 0 48 3.58172 48 8V40C48 44.4183 44.4183 48 40 48H8C3.58172 48 0 44.4183 0 40V8Z" fill="#FF9641"/>
<path d="M24.7406 31.6C26.3438 29.5938 30 24.7312 30 22C30 18.6875 27.3125 16 24 16C20.6875 16 18 18.6875 18 22C18 24.7312 21.6562 29.5938 23.2594 31.6C23.6438 32.0781 24.3562 32.0781 24.7406 31.6ZM24 20C24.5304 20 25.0391 20.2107 25.4142 20.5858C25.7893 20.9609 26 21.4696 26 22C26 22.5304 25.7893 23.0391 25.4142 23.4142C25.0391 23.7893 24.5304 24 24 24C23.4696 24 22.9609 23.7893 22.5858 23.4142C22.2107 23.0391 22 22.5304 22 22C22 21.4696 22.2107 20.9609 22.5858 20.5858C22.9609 20.2107 23.4696 20 24 20Z" fill="white"/>
</svg>
