<svg width="48" height="48" viewBox="0 0 48 48" fill="none" xmlns="http://www.w3.org/2000/svg">
<path d="M0 8C0 3.58172 3.58172 0 8 0H40C44.4183 0 48 3.58172 48 8V40C48 44.4183 44.4183 48 40 48H8C3.58172 48 0 44.4183 0 40V8Z" fill="#FF9641"/>
<path d="M21.1531 16.7695C20.9125 16.1882 20.2781 15.8788 19.6719 16.0445L16.9219 16.7945C16.3781 16.9445 16 17.4382 16 18.0007C16 25.732 22.2688 32.0007 30 32.0007C30.5625 32.0007 31.0563 31.6226 31.2063 31.0788L31.9563 28.3288C32.1219 27.7226 31.8125 27.0882 31.2312 26.8476L28.2312 25.5976C27.7219 25.3851 27.1313 25.532 26.7844 25.9601L25.5219 27.5007C23.3219 26.4601 21.5406 24.6788 20.5 22.4788L22.0406 21.2195C22.4688 20.8695 22.6156 20.282 22.4031 19.7726L21.1531 16.7726V16.7695Z" fill="white"/>
</svg>
