<svg width="42" height="42" viewBox="0 0 42 42" fill="none" xmlns="http://www.w3.org/2000/svg">
<path d="M33 0.5C37.6944 0.5 41.5 4.30558 41.5 9V33C41.5 37.6944 37.6944 41.5 33 41.5H9C4.30558 41.5 0.5 37.6944 0.5 33V9C0.5 4.30558 4.30558 0.5 9 0.5H33Z" stroke="#FF9641"/>
<path d="M27 14H14.9969C14.4469 14 14 14.4531 14 15.0094V26.9906C14 27.5469 14.4469 28 14.9969 28H27C27.55 28 28 27.5469 28 26.9906V15.0094C28 14.4531 27.55 14 27 14ZM18.2312 26H16.1562V19.3187H18.2344V26H18.2312ZM17.1937 18.4062C16.5281 18.4062 15.9906 17.8656 15.9906 17.2031C15.9906 16.5406 16.5281 16 17.1937 16C17.8562 16 18.3969 16.5406 18.3969 17.2031C18.3969 17.8688 17.8594 18.4062 17.1937 18.4062ZM26.0094 26H23.9344V22.75C23.9344 21.975 23.9187 20.9781 22.8562 20.9781C21.775 20.9781 21.6094 21.8219 21.6094 22.6938V26H19.5344V19.3187H21.525V20.2312H21.5531C21.8312 19.7062 22.5094 19.1531 23.5188 19.1531C25.6187 19.1531 26.0094 20.5375 26.0094 22.3375V26Z" fill="#FF9641"/>
</svg>
