<svg width="14" height="17" viewBox="0 0 14 17" fill="none" xmlns="http://www.w3.org/2000/svg">
<path d="M7 8.375C8.06087 8.375 9.07828 7.95357 9.82843 7.20343C10.5786 6.45328 11 5.43587 11 4.375C11 3.31413 10.5786 2.29672 9.82843 1.54657C9.07828 0.796427 8.06087 0.375 7 0.375C5.93913 0.375 4.92172 0.796427 4.17157 1.54657C3.42143 2.29672 3 3.31413 3 4.375C3 5.43587 3.42143 6.45328 4.17157 7.20343C4.92172 7.95357 5.93913 8.375 7 8.375ZM5.57188 9.875C2.49375 9.875 0 12.3687 0 15.4469C0 15.9594 0.415625 16.375 0.928125 16.375H13.0719C13.5844 16.375 14 15.9594 14 15.4469C14 12.3687 11.5063 9.875 8.42813 9.875H5.57188Z" fill="#E5E7EB"/>
</svg>
