<svg width="30" height="24" viewBox="0 0 30 24" fill="none" xmlns="http://www.w3.org/2000/svg">
<path d="M4.50195 5.99902C4.50195 4.40772 5.13409 2.8816 6.25931 1.75638C7.38453 0.631165 8.91065 -0.000976562 10.502 -0.000976562C12.0933 -0.000976562 13.6194 0.631165 14.7446 1.75638C15.8698 2.8816 16.502 4.40772 16.502 5.99902C16.502 7.59032 15.8698 9.11645 14.7446 10.2417C13.6194 11.3669 12.0933 11.999 10.502 11.999C8.91065 11.999 7.38453 11.3669 6.25931 10.2417C5.13409 9.11645 4.50195 7.59032 4.50195 5.99902ZM0.00195312 22.6068C0.00195312 17.9896 3.74258 14.249 8.35977 14.249H12.6441C17.2613 14.249 21.002 17.9896 21.002 22.6068C21.002 23.3756 20.3785 23.999 19.6098 23.999H1.39414C0.625391 23.999 0.00195312 23.3756 0.00195312 22.6068ZM29.2988 8.2959L23.2988 14.2959C22.8582 14.7365 22.1457 14.7365 21.7098 14.2959L18.7098 11.2959C18.2691 10.8553 18.2691 10.1428 18.7098 9.70684C19.1504 9.2709 19.8629 9.26621 20.2988 9.70684L22.502 11.91L27.7051 6.70215C28.1457 6.26152 28.8582 6.26152 29.2941 6.70215C29.7301 7.14277 29.7348 7.85527 29.2941 8.29121L29.2988 8.2959Z" fill="#FF9641"/>
</svg>
