<svg width="18" height="24" viewBox="0 0 18 24" fill="none" xmlns="http://www.w3.org/2000/svg">
<path d="M8.1493 0.256641C8.66492 -0.0855469 9.33992 -0.0855469 9.85555 0.256641L10.6899 0.805078C10.9712 0.987891 11.2993 1.07695 11.6321 1.0582L12.6305 0.997266C13.2493 0.959766 13.8305 1.29727 14.1071 1.85039L14.5571 2.7457C14.7071 3.0457 14.9509 3.28477 15.2462 3.43477L16.1509 3.88945C16.704 4.16602 17.0415 4.74727 17.004 5.36602L16.9431 6.36445C16.9243 6.69727 17.0134 7.03008 17.1962 7.30664L17.7493 8.14102C18.0915 8.65664 18.0915 9.33164 17.7493 9.84727L17.1962 10.6863C17.0134 10.9676 16.9243 11.2957 16.9431 11.6285L17.004 12.627C17.0415 13.2457 16.704 13.827 16.1509 14.1035L15.2555 14.5535C14.9555 14.7035 14.7165 14.9473 14.5665 15.2426L14.1118 16.1473C13.8352 16.7004 13.254 17.0379 12.6352 17.0004L11.6368 16.9395C11.304 16.9207 10.9712 17.0098 10.6946 17.1926L9.86024 17.7457C9.34461 18.0879 8.66961 18.0879 8.15399 17.7457L7.31492 17.1926C7.03367 17.0098 6.70555 16.9207 6.37274 16.9395L5.3743 17.0004C4.75555 17.0379 4.1743 16.7004 3.89774 16.1473L3.44774 15.252C3.29774 14.952 3.05399 14.7129 2.75867 14.5629L1.85399 14.1082C1.30086 13.8316 0.963362 13.2504 1.00086 12.6316L1.0618 11.6332C1.08055 11.3004 0.991487 10.9676 0.808675 10.691L0.260237 9.85195C-0.0819505 9.33633 -0.0819505 8.66133 0.260237 8.1457L0.808675 7.31133C0.991487 7.03008 1.08055 6.70195 1.0618 6.36914L1.00086 5.3707C0.963362 4.75195 1.30086 4.1707 1.85399 3.89414L2.7493 3.44414C3.0493 3.28945 3.29305 3.0457 3.44305 2.7457L3.89305 1.85039C4.16961 1.29727 4.75086 0.959766 5.36961 0.997266L6.36805 1.0582C6.70086 1.07695 7.03367 0.987891 7.31024 0.805078L8.1493 0.256641ZM12.7524 8.99883C12.7524 8.00427 12.3573 7.05044 11.6541 6.34718C10.9508 5.64392 9.99699 5.24883 9.00243 5.24883C8.00786 5.24883 7.05404 5.64392 6.35077 6.34718C5.64751 7.05044 5.25242 8.00427 5.25242 8.99883C5.25242 9.99339 5.64751 10.9472 6.35077 11.6505C7.05404 12.3537 8.00786 12.7488 9.00243 12.7488C9.99699 12.7488 10.9508 12.3537 11.6541 11.6505C12.3573 10.9472 12.7524 9.99339 12.7524 8.99883ZM0.0633621 20.7082L2.08367 15.9035C2.09305 15.9082 2.09774 15.9129 2.10242 15.9223L2.55242 16.8176C3.10086 17.9051 4.23992 18.566 5.45867 18.4957L6.45711 18.4348C6.46649 18.4348 6.48055 18.4348 6.48992 18.4441L7.3243 18.9973C7.56336 19.152 7.81649 19.2738 8.07899 19.3582L6.31649 23.5441C6.20867 23.802 5.96961 23.9754 5.69305 23.9988C5.41649 24.0223 5.1493 23.8957 4.9993 23.6613L3.48992 21.3504L0.860237 21.7395C0.59305 21.777 0.325862 21.6691 0.157112 21.4582C-0.0116379 21.2473 -0.0444504 20.9566 0.0586746 20.7082H0.0633621ZM11.6884 23.5395L9.92586 19.3582C10.1884 19.2738 10.4415 19.1566 10.6805 18.9973L11.5149 18.4441C11.5243 18.4395 11.5337 18.4348 11.5477 18.4348L12.5462 18.4957C13.7649 18.566 14.904 17.9051 15.4524 16.8176L15.9024 15.9223C15.9071 15.9129 15.9118 15.9082 15.9212 15.9035L17.9462 20.7082C18.0493 20.9566 18.0118 21.2426 17.8477 21.4582C17.6837 21.6738 17.4118 21.7816 17.1446 21.7395L14.5149 21.3504L13.0055 23.6566C12.8555 23.891 12.5884 24.0176 12.3118 23.9941C12.0352 23.9707 11.7962 23.7926 11.6884 23.5395Z" fill="#FF9641"/>
</svg>
