<svg width="14" height="23" viewBox="0 0 14 23" fill="none" xmlns="http://www.w3.org/2000/svg">
<path d="M13.6 11.1498C13.6 11.4165 13.5587 11.6665 13.476 11.8998C13.3933 12.1331 13.2513 12.3498 13.05 12.5498L3.85 21.7498C3.48333 22.1165 3.01667 22.2998 2.45 22.2998C1.88333 22.2998 1.41667 22.1165 1.05 21.7498C0.683333 21.3831 0.5 20.9165 0.5 20.3498C0.5 19.7831 0.683333 19.3165 1.05 18.9498L8.85 11.1498L1.05 3.34981C0.683333 2.98314 0.5 2.51647 0.5 1.9498C0.5 1.38314 0.683333 0.916473 1.05 0.549807C1.41667 0.18314 1.88333 -0.000196457 2.45 -0.000196457C3.01667 -0.000196457 3.48333 0.18314 3.85 0.549807L13.05 9.74981C13.25 9.94981 13.392 10.1665 13.476 10.3998C13.56 10.6331 13.6013 10.8831 13.6 11.1498Z" fill="#F9FAFB"/>
</svg>
