<svg width="48" height="48" viewBox="0 0 48 48" fill="none" xmlns="http://www.w3.org/2000/svg">
<path d="M0 24C0 10.7452 10.7452 0 24 0C37.2548 0 48 10.7452 48 24C48 37.2548 37.2548 48 24 48C10.7452 48 0 37.2548 0 24Z" fill="#282828"/>
<path d="M36.0113 37.0562H35.2248V12.3595C35.2248 12.2344 35.175 12.1144 35.0865 12.0259C34.998 11.9374 34.878 11.8876 34.7529 11.8876H25.9439C25.8819 11.8876 25.8205 11.8998 25.7633 11.9236C25.706 11.9473 25.654 11.982 25.6102 12.0258C25.5663 12.0697 25.5316 12.1217 25.5079 12.179C25.4841 12.2362 25.4719 12.2976 25.472 12.3595V14.4045H24.5282V12.3595C24.5282 12.2344 24.4784 12.1144 24.3899 12.0259C24.3014 11.9374 24.1814 11.8876 24.0563 11.8876H22.0113V10.4719C22.0113 10.2112 21.8 10 21.5394 10C21.2788 10 21.0675 10.2112 21.0675 10.4719V11.8876H19.0225C18.9606 11.8876 18.8992 11.8998 18.842 11.9236C18.7847 11.9473 18.7327 11.982 18.6888 12.0258C18.645 12.0697 18.6103 12.1217 18.5866 12.179C18.5628 12.2362 18.5506 12.2976 18.5506 12.3595V14.4045H17.1349C17.0729 14.4045 17.0116 14.4167 16.9543 14.4404C16.897 14.4641 16.845 14.4989 16.8012 14.5427C16.7574 14.5865 16.7226 14.6385 16.6989 14.6958C16.6752 14.753 16.663 14.8144 16.663 14.8764V18.809H12.7304C12.6684 18.8089 12.6071 18.8211 12.5498 18.8449C12.4926 18.8686 12.4405 18.9033 12.3967 18.9472C12.3529 18.991 12.3181 19.043 12.2944 19.1003C12.2707 19.1575 12.2585 19.2189 12.2585 19.2809V37.0561H11.4719C11.2113 37.0561 11 37.2674 11 37.528C11 37.7887 11.2113 38 11.4719 38H36.0113C36.2719 38 36.4832 37.7888 36.4832 37.5281C36.4832 37.2674 36.2719 37.0562 36.0113 37.0562ZM19.4944 12.8314H23.5842V14.4045H19.4944V12.8314ZM17.9214 37.0562H17.6067V36.2697C17.6067 36.009 17.3954 35.7978 17.1348 35.7978C16.8743 35.7978 16.6629 36.009 16.6629 36.2697V37.0562H16.3483V35.4832H17.9214V37.0562ZM21.0674 24.9438V37.0562H18.8652V35.0113C18.8652 34.8861 18.8154 34.7661 18.7269 34.6776C18.6384 34.5891 18.5184 34.5394 18.3933 34.5394H15.8764C15.8145 34.5394 15.7531 34.5516 15.6958 34.5753C15.6386 34.599 15.5866 34.6338 15.5427 34.6776C15.4989 34.7214 15.4641 34.7734 15.4404 34.8307C15.4167 34.8879 15.4045 34.9493 15.4045 35.0113V37.0562H13.2023V19.7528H21.0674V24.9438ZM21.5393 18.809H17.6067V15.3483H25.4719V24.4719H22.0113V22.8989H23.427C23.6877 22.8989 23.8989 22.6877 23.8989 22.427C23.8989 22.1663 23.6876 21.9551 23.427 21.9551H22.0113V20.382H23.427C23.6877 20.382 23.8989 20.1708 23.8989 19.9101C23.8989 19.6494 23.6876 19.4382 23.427 19.4382H22.0113V19.281C22.0113 19.219 21.9991 19.1576 21.9754 19.1003C21.9516 19.0431 21.9169 18.991 21.8731 18.9472C21.8292 18.9034 21.7772 18.8686 21.7199 18.8449C21.6627 18.8212 21.6013 18.809 21.5393 18.809ZM29.8764 37.0562H22.0113V25.4158H29.8764V37.0562ZM34.2809 37.0562H30.8202V24.3146C30.8202 24.0539 30.6089 23.8427 30.3483 23.8427C30.0877 23.8427 29.8764 24.0539 29.8764 24.3146V24.4718H28.9326V24.3146C28.9326 24.0539 28.7213 23.8427 28.4607 23.8427C28.2001 23.8427 27.9888 24.0539 27.9888 24.3146V24.4718H26.4158V12.8314H34.281V37.0562H34.2809Z" fill="#E93528"/>
<path d="M24.0563 36.1122C24.1814 36.1122 24.3015 36.0625 24.39 35.974C24.4785 35.8855 24.5282 35.7655 24.5282 35.6403V26.8314C24.5282 26.5707 24.3169 26.3595 24.0563 26.3595C23.7957 26.3595 23.5844 26.5707 23.5844 26.8314V35.6404C23.5844 35.7024 23.5966 35.7637 23.6203 35.821C23.644 35.8782 23.6788 35.9302 23.7226 35.974C23.7664 36.0179 23.8185 36.0526 23.8757 36.0763C23.933 36.1 23.9943 36.1122 24.0563 36.1122ZM25.9439 36.1122C26.0691 36.1122 26.1891 36.0625 26.2776 35.974C26.3661 35.8855 26.4158 35.7655 26.4158 35.6403V26.8314C26.4158 26.5707 26.2045 26.3595 25.9439 26.3595C25.6834 26.3595 25.472 26.5707 25.472 26.8314V35.6404C25.472 35.7024 25.4843 35.7637 25.508 35.821C25.5317 35.8782 25.5664 35.9302 25.6103 35.974C25.6541 36.0179 25.7061 36.0526 25.7634 36.0763C25.8206 36.1 25.882 36.1122 25.9439 36.1122ZM27.8315 36.1122C27.9567 36.1122 28.0767 36.0625 28.1652 35.974C28.2537 35.8855 28.3034 35.7655 28.3034 35.6403V26.8314C28.3034 26.5707 28.0921 26.3595 27.8315 26.3595C27.571 26.3595 27.3596 26.5707 27.3596 26.8314V35.6404C27.3597 35.7655 27.4094 35.8855 27.4979 35.974C27.5864 36.0625 27.7064 36.1122 27.8315 36.1122ZM28.4608 15.9773C28.5227 15.9773 28.5841 15.9651 28.6414 15.9414C28.6986 15.9177 28.7507 15.8829 28.7945 15.8391C28.8383 15.7953 28.8731 15.7432 28.8968 15.686C28.9205 15.6287 28.9327 15.5673 28.9327 15.5054V14.8762C28.9327 14.6155 28.7214 14.4043 28.4608 14.4043C28.2002 14.4043 27.9889 14.6155 27.9889 14.8762V15.5054C27.9889 15.5674 28.0011 15.6288 28.0248 15.686C28.0485 15.7433 28.0833 15.7953 28.1271 15.8391C28.1709 15.8829 28.2229 15.9177 28.2802 15.9414C28.3374 15.9651 28.3988 15.9773 28.4608 15.9773ZM30.3484 15.9773C30.4104 15.9773 30.4718 15.9651 30.529 15.9414C30.5863 15.9177 30.6383 15.8829 30.6821 15.8391C30.7259 15.7953 30.7607 15.7432 30.7844 15.686C30.8081 15.6287 30.8203 15.5673 30.8203 15.5054V14.8762C30.8203 14.6155 30.609 14.4043 30.3484 14.4043C30.0878 14.4043 29.8765 14.6155 29.8765 14.8762V15.5054C29.8765 15.5674 29.8887 15.6288 29.9124 15.686C29.9362 15.7433 29.9709 15.7953 30.0147 15.8391C30.0586 15.8829 30.1106 15.9177 30.1678 15.9414C30.2251 15.9651 30.2865 15.9773 30.3484 15.9773ZM32.2361 15.9773C32.298 15.9773 32.3594 15.9651 32.4167 15.9414C32.4739 15.9177 32.5259 15.8829 32.5698 15.8391C32.6136 15.7953 32.6483 15.7432 32.6721 15.686C32.6958 15.6287 32.708 15.5673 32.708 15.5054V14.8762C32.708 14.6155 32.4967 14.4043 32.2361 14.4043C31.9755 14.4043 31.7642 14.6155 31.7642 14.8762V15.5054C31.7642 15.5674 31.7764 15.6288 31.8001 15.686C31.8238 15.7433 31.8586 15.7953 31.9024 15.8391C31.9462 15.8829 31.9982 15.9177 32.0555 15.9414C32.1127 15.9651 32.1741 15.9773 32.2361 15.9773ZM28.4608 19.1233C28.5227 19.1233 28.5841 19.1111 28.6414 19.0874C28.6986 19.0637 28.7507 19.029 28.7945 18.9851C28.8383 18.9413 28.8731 18.8893 28.8968 18.832C28.9205 18.7748 28.9327 18.7134 28.9327 18.6514V18.0222C28.9327 17.7615 28.7214 17.5503 28.4608 17.5503C28.2002 17.5503 27.9889 17.7615 27.9889 18.0222V18.6514C27.9889 18.7134 28.0011 18.7748 28.0248 18.832C28.0485 18.8893 28.0833 18.9413 28.1271 18.9851C28.1709 19.029 28.2229 19.0637 28.2802 19.0874C28.3374 19.1111 28.3988 19.1233 28.4608 19.1233ZM30.3484 19.1233C30.4104 19.1233 30.4718 19.1111 30.529 19.0874C30.5863 19.0637 30.6383 19.029 30.6821 18.9851C30.7259 18.9413 30.7607 18.8893 30.7844 18.832C30.8081 18.7748 30.8203 18.7134 30.8203 18.6514V18.0222C30.8203 17.7615 30.609 17.5503 30.3484 17.5503C30.0878 17.5503 29.8765 17.7615 29.8765 18.0222V18.6514C29.8765 18.7134 29.8887 18.7748 29.9124 18.832C29.9361 18.8893 29.9709 18.9413 30.0147 18.9851C30.0585 19.029 30.1106 19.0637 30.1678 19.0874C30.2251 19.1111 30.2864 19.1233 30.3484 19.1233ZM32.2361 19.1233C32.298 19.1233 32.3594 19.1111 32.4167 19.0874C32.4739 19.0637 32.5259 19.029 32.5698 18.9851C32.6136 18.9413 32.6483 18.8893 32.6721 18.832C32.6958 18.7748 32.708 18.7134 32.708 18.6514V18.0222C32.708 17.7615 32.4967 17.5503 32.2361 17.5503C31.9755 17.5503 31.7642 17.7615 31.7642 18.0222V18.6514C31.7642 18.7134 31.7764 18.7748 31.8001 18.832C31.8238 18.8893 31.8586 18.9413 31.9024 18.9851C31.9462 19.029 31.9982 19.0637 32.0555 19.0874C32.1127 19.1111 32.1741 19.1233 32.2361 19.1233ZM28.4608 22.2695C28.5227 22.2695 28.5841 22.2573 28.6414 22.2335C28.6986 22.2098 28.7507 22.1751 28.7945 22.1313C28.8383 22.0874 28.8731 22.0354 28.8968 21.9782C28.9205 21.9209 28.9327 21.8595 28.9327 21.7976V21.1683C28.9327 20.9076 28.7214 20.6964 28.4608 20.6964C28.2002 20.6964 27.9889 20.9076 27.9889 21.1683V21.7976C27.9889 21.9227 28.0386 22.0427 28.1271 22.1312C28.2156 22.2197 28.3356 22.2695 28.4608 22.2695ZM30.3484 22.2695C30.4104 22.2695 30.4718 22.2573 30.529 22.2335C30.5863 22.2098 30.6383 22.1751 30.6821 22.1313C30.7259 22.0874 30.7607 22.0354 30.7844 21.9782C30.8081 21.9209 30.8203 21.8595 30.8203 21.7976V21.1683C30.8203 20.9076 30.609 20.6964 30.3484 20.6964C30.0878 20.6964 29.8765 20.9076 29.8765 21.1683V21.7976C29.8765 21.9227 29.9262 22.0427 30.0147 22.1312C30.1032 22.2197 30.2233 22.2695 30.3484 22.2695ZM32.2361 22.2695C32.298 22.2695 32.3594 22.2573 32.4167 22.2335C32.4739 22.2098 32.5259 22.1751 32.5698 22.1313C32.6136 22.0874 32.6483 22.0354 32.6721 21.9782C32.6958 21.9209 32.708 21.8595 32.708 21.7976V21.1683C32.708 20.9076 32.4967 20.6964 32.2361 20.6964C31.9755 20.6964 31.7642 20.9076 31.7642 21.1683V21.7976C31.7642 21.9227 31.8139 22.0427 31.9024 22.1312C31.9909 22.2197 32.1109 22.2695 32.2361 22.2695ZM15.2473 23.5279C15.3093 23.5279 15.3706 23.5157 15.4279 23.492C15.4851 23.4682 15.5372 23.4335 15.581 23.3897C15.6248 23.3458 15.6596 23.2938 15.6833 23.2366C15.707 23.1793 15.7192 23.1179 15.7192 23.056V22.4267C15.7192 22.166 15.5079 21.9548 15.2473 21.9548C14.9867 21.9548 14.7754 22.166 14.7754 22.4267V23.056C14.7754 23.1811 14.8251 23.3011 14.9136 23.3896C15.0021 23.4781 15.1221 23.5279 15.2473 23.5279ZM17.1349 23.5279C17.1969 23.5279 17.2583 23.5157 17.3155 23.492C17.3728 23.4682 17.4248 23.4335 17.4686 23.3897C17.5125 23.3458 17.5472 23.2938 17.5709 23.2366C17.5946 23.1793 17.6068 23.1179 17.6068 23.056V22.4267C17.6068 22.166 17.3955 21.9548 17.1349 21.9548C16.8744 21.9548 16.663 22.166 16.663 22.4267V23.056C16.663 23.1811 16.7128 23.3012 16.8013 23.3897C16.8898 23.4781 17.0098 23.5279 17.1349 23.5279ZM19.0226 23.5279C19.0846 23.5279 19.1459 23.5157 19.2032 23.492C19.2604 23.4682 19.3125 23.4335 19.3563 23.3897C19.4001 23.3458 19.4349 23.2938 19.4586 23.2366C19.4823 23.1793 19.4945 23.1179 19.4945 23.056V22.4267C19.4945 22.166 19.2832 21.9548 19.0226 21.9548C18.762 21.9548 18.5507 22.166 18.5507 22.4267V23.056C18.5507 23.1811 18.6004 23.3012 18.6889 23.3897C18.7774 23.4781 18.8974 23.5279 19.0226 23.5279ZM15.2473 26.6739C15.3093 26.6739 15.3706 26.6617 15.4279 26.638C15.4851 26.6143 15.5372 26.5796 15.581 26.5357C15.6248 26.4919 15.6596 26.4399 15.6833 26.3826C15.707 26.3254 15.7192 26.264 15.7192 26.202V25.5728C15.7192 25.3121 15.5079 25.1009 15.2473 25.1009C14.9867 25.1009 14.7754 25.3121 14.7754 25.5728V26.202C14.7754 26.3272 14.8251 26.4472 14.9136 26.5357C15.0021 26.6242 15.1221 26.6739 15.2473 26.6739ZM17.1349 26.6739C17.1969 26.6739 17.2583 26.6617 17.3155 26.638C17.3728 26.6143 17.4248 26.5796 17.4686 26.5357C17.5125 26.4919 17.5472 26.4399 17.5709 26.3826C17.5946 26.3254 17.6068 26.264 17.6068 26.202V25.5728C17.6068 25.3121 17.3955 25.1009 17.1349 25.1009C16.8744 25.1009 16.663 25.3121 16.663 25.5728V26.202C16.663 26.3272 16.7128 26.4472 16.8013 26.5357C16.8898 26.6242 17.0098 26.6739 17.1349 26.6739ZM19.0226 26.6739C19.0846 26.6739 19.1459 26.6617 19.2032 26.638C19.2604 26.6143 19.3125 26.5796 19.3563 26.5357C19.4001 26.4919 19.4349 26.4399 19.4586 26.3826C19.4823 26.3254 19.4945 26.264 19.4945 26.202V25.5728C19.4945 25.3121 19.2832 25.1009 19.0226 25.1009C18.762 25.1009 18.5507 25.3121 18.5507 25.5728V26.202C18.5507 26.3272 18.6004 26.4472 18.6889 26.5357C18.7774 26.6242 18.8974 26.6739 19.0226 26.6739ZM15.2473 29.82C15.3093 29.82 15.3706 29.8078 15.4279 29.7841C15.4851 29.7604 15.5372 29.7256 15.581 29.6818C15.6248 29.638 15.6596 29.5859 15.6833 29.5287C15.707 29.4714 15.7192 29.4101 15.7192 29.3481V28.7189C15.7192 28.4582 15.5079 28.247 15.2473 28.247C14.9867 28.247 14.7754 28.4582 14.7754 28.7189V29.3481C14.7754 29.4101 14.7876 29.4714 14.8113 29.5287C14.835 29.5859 14.8698 29.638 14.9136 29.6818C14.9574 29.7256 15.0094 29.7604 15.0667 29.7841C15.124 29.8078 15.1853 29.82 15.2473 29.82ZM17.1349 29.82C17.1969 29.82 17.2583 29.8078 17.3155 29.7841C17.3728 29.7604 17.4248 29.7256 17.4686 29.6818C17.5125 29.638 17.5472 29.5859 17.5709 29.5287C17.5946 29.4714 17.6068 29.4101 17.6068 29.3481V28.7189C17.6068 28.4582 17.3955 28.247 17.1349 28.247C16.8744 28.247 16.663 28.4582 16.663 28.7189V29.3481C16.663 29.4101 16.6752 29.4714 16.6989 29.5287C16.7227 29.5859 16.7574 29.638 16.8012 29.6818C16.8451 29.7256 16.8971 29.7604 16.9543 29.7841C17.0116 29.8078 17.073 29.82 17.1349 29.82ZM19.0226 29.82C19.0846 29.82 19.1459 29.8078 19.2032 29.7841C19.2604 29.7604 19.3125 29.7256 19.3563 29.6818C19.4001 29.638 19.4349 29.5859 19.4586 29.5287C19.4823 29.4714 19.4945 29.4101 19.4945 29.3481V28.7189C19.4945 28.4582 19.2832 28.247 19.0226 28.247C18.762 28.247 18.5507 28.4582 18.5507 28.7189V29.3481C18.5507 29.4101 18.5629 29.4714 18.5866 29.5287C18.6103 29.5859 18.6451 29.638 18.6889 29.6818C18.7327 29.7256 18.7847 29.7604 18.842 29.7841C18.8992 29.8078 18.9606 29.82 19.0226 29.82ZM15.2473 32.9661C15.3093 32.9661 15.3706 32.9539 15.4279 32.9301C15.4851 32.9064 15.5372 32.8717 15.581 32.8279C15.6248 32.784 15.6596 32.732 15.6833 32.6748C15.707 32.6175 15.7192 32.5561 15.7192 32.4942V31.8649C15.7192 31.6042 15.5079 31.393 15.2473 31.393C14.9867 31.393 14.7754 31.6042 14.7754 31.8649V32.4942C14.7754 32.6193 14.8251 32.7393 14.9136 32.8278C15.0021 32.9163 15.1221 32.9661 15.2473 32.9661ZM17.1349 32.9661C17.1969 32.9661 17.2583 32.9539 17.3155 32.9301C17.3728 32.9064 17.4248 32.8717 17.4686 32.8279C17.5125 32.784 17.5472 32.732 17.5709 32.6748C17.5946 32.6175 17.6068 32.5561 17.6068 32.4942V31.8649C17.6068 31.6042 17.3955 31.393 17.1349 31.393C16.8744 31.393 16.663 31.6042 16.663 31.8649V32.4942C16.663 32.5561 16.6752 32.6175 16.6989 32.6748C16.7227 32.732 16.7574 32.784 16.8012 32.8279C16.8451 32.8717 16.8971 32.9064 16.9543 32.9301C17.0116 32.9539 17.073 32.9661 17.1349 32.9661ZM19.0226 32.9661C19.0846 32.9661 19.1459 32.9539 19.2032 32.9301C19.2604 32.9064 19.3125 32.8717 19.3563 32.8279C19.4001 32.784 19.4349 32.732 19.4586 32.6748C19.4823 32.6175 19.4945 32.5561 19.4945 32.4942V31.8649C19.4945 31.6042 19.2832 31.393 19.0226 31.393C18.762 31.393 18.5507 31.6042 18.5507 31.8649V32.4942C18.5507 32.5561 18.5629 32.6175 18.5866 32.6748C18.6103 32.732 18.6451 32.784 18.6889 32.8279C18.7327 32.8717 18.7847 32.9064 18.842 32.9301C18.8992 32.9539 18.9606 32.9661 19.0226 32.9661ZM32.2361 25.4155C32.298 25.4155 32.3594 25.4033 32.4167 25.3796C32.4739 25.3559 32.5259 25.3211 32.5698 25.2773C32.6136 25.2335 32.6483 25.1815 32.6721 25.1242C32.6958 25.067 32.708 25.0056 32.708 24.9436V24.3144C32.708 24.0537 32.4967 23.8425 32.2361 23.8425C31.9755 23.8425 31.7642 24.0537 31.7642 24.3144V24.9436C31.7642 25.0688 31.8139 25.1888 31.9024 25.2773C31.9909 25.3658 32.1109 25.4155 32.2361 25.4155ZM32.2361 28.5616C32.298 28.5616 32.3594 28.5494 32.4167 28.5257C32.4739 28.502 32.5259 28.4672 32.5698 28.4234C32.6136 28.3796 32.6483 28.3275 32.6721 28.2703C32.6958 28.213 32.708 28.1517 32.708 28.0897V27.4604C32.708 27.1997 32.4967 26.9885 32.2361 26.9885C31.9755 26.9885 31.7642 27.1997 31.7642 27.4604V28.0897C31.7642 28.2148 31.8139 28.3349 31.9024 28.4234C31.9909 28.5119 32.1109 28.5616 32.2361 28.5616ZM32.2361 31.7076C32.298 31.7076 32.3594 31.6954 32.4167 31.6717C32.4739 31.648 32.5259 31.6133 32.5698 31.5694C32.6136 31.5256 32.6483 31.4736 32.6721 31.4163C32.6958 31.3591 32.708 31.2977 32.708 31.2357V30.6065C32.708 30.3458 32.4967 30.1346 32.2361 30.1346C31.9755 30.1346 31.7642 30.3458 31.7642 30.6065V31.2357C31.7642 31.2977 31.7764 31.3591 31.8001 31.4163C31.8238 31.4736 31.8586 31.5256 31.9024 31.5694C31.9462 31.6132 31.9982 31.648 32.0555 31.6717C32.1127 31.6954 32.1741 31.7076 32.2361 31.7076ZM32.2361 34.8537C32.298 34.8537 32.3594 34.8415 32.4167 34.8178C32.4739 34.7941 32.5259 34.7593 32.5698 34.7155C32.6136 34.6717 32.6483 34.6197 32.6721 34.5624C32.6958 34.5051 32.708 34.4438 32.708 34.3818V33.7526C32.708 33.4919 32.4967 33.2807 32.2361 33.2807C31.9755 33.2807 31.7642 33.4919 31.7642 33.7526V34.3818C31.7642 34.507 31.8139 34.627 31.9024 34.7155C31.9909 34.804 32.1109 34.8537 32.2361 34.8537ZM23.899 17.393C23.899 17.2679 23.8492 17.1478 23.7607 17.0593C23.6722 16.9708 23.5522 16.9211 23.4271 16.9211H19.6518C19.5898 16.9211 19.5284 16.9333 19.4712 16.957C19.4139 16.9807 19.3619 17.0155 19.3181 17.0593C19.2742 17.1031 19.2395 17.1552 19.2158 17.2124C19.1921 17.2697 19.1799 17.3311 19.1799 17.393C19.1799 17.5182 19.2296 17.6382 19.3181 17.7267C19.4066 17.8152 19.5266 17.8649 19.6518 17.8649H23.4271C23.489 17.8649 23.5504 17.8527 23.6077 17.829C23.6649 17.8053 23.7169 17.7705 23.7608 17.7267C23.8046 17.6829 23.8393 17.6309 23.8631 17.5736C23.8868 17.5164 23.899 17.455 23.899 17.393Z" fill="#F8BC16"/>
</svg>
