<svg width="49" height="48" viewBox="0 0 49 48" fill="none" xmlns="http://www.w3.org/2000/svg">
<path d="M24.5 0C37.7548 0 48.5 10.7452 48.5 24C48.5 37.2548 37.7548 48 24.5 48C11.2452 48 0.5 37.2548 0.5 24C0.5 10.7452 11.2452 0 24.5 0Z" fill="#282828"/>
<path d="M24.5 0C37.7548 0 48.5 10.7452 48.5 24C48.5 37.2548 37.7548 48 24.5 48C11.2452 48 0.5 37.2548 0.5 24C0.5 10.7452 11.2452 0 24.5 0Z" stroke="#E5E7EB"/>
<path d="M36.7701 37.0562H35.9835V12.3595C35.9835 12.2344 35.9338 12.1144 35.8453 12.0259C35.7568 11.9374 35.6368 11.8876 35.5117 11.8876H26.7026C26.6407 11.8876 26.5793 11.8998 26.522 11.9236C26.4648 11.9473 26.4128 11.982 26.3689 12.0258C26.3251 12.0697 26.2904 12.1217 26.2666 12.179C26.2429 12.2362 26.2307 12.2976 26.2307 12.3595V14.4045H25.2869V12.3595C25.2869 12.2344 25.2372 12.1144 25.1487 12.0259C25.0602 11.9374 24.9402 11.8876 24.815 11.8876H22.7701V10.4719C22.7701 10.2112 22.5588 10 22.2982 10C22.0376 10 21.8263 10.2112 21.8263 10.4719V11.8876H19.7813C19.7194 11.8876 19.658 11.8998 19.6007 11.9236C19.5435 11.9473 19.4915 11.982 19.4476 12.0258C19.4038 12.0697 19.3691 12.1217 19.3453 12.179C19.3216 12.2362 19.3094 12.2976 19.3094 12.3595V14.4045H17.8937C17.8317 14.4045 17.7703 14.4167 17.7131 14.4404C17.6558 14.4641 17.6038 14.4989 17.56 14.5427C17.5162 14.5865 17.4814 14.6385 17.4577 14.6958C17.434 14.753 17.4218 14.8144 17.4218 14.8764V18.809H13.4892C13.4272 18.8089 13.3659 18.8211 13.3086 18.8449C13.2514 18.8686 13.1993 18.9033 13.1555 18.9472C13.1117 18.991 13.0769 19.043 13.0532 19.1003C13.0295 19.1575 13.0173 19.2189 13.0173 19.2809V37.0561H12.2307C11.97 37.0561 11.7588 37.2674 11.7588 37.528C11.7588 37.7887 11.9701 38 12.2307 38H36.7701C37.0307 38 37.242 37.7888 37.242 37.5281C37.242 37.2674 37.0306 37.0562 36.7701 37.0562ZM20.2532 12.8314H24.343V14.4045H20.2532V12.8314ZM18.6801 37.0562H18.3655V36.2697C18.3655 36.009 18.1542 35.7978 17.8936 35.7978C17.633 35.7978 17.4217 36.009 17.4217 36.2697V37.0562H17.1071V35.4832H18.6801V37.0562ZM21.8262 24.9438V37.0562H19.6239V35.0113C19.6239 34.8861 19.5742 34.7661 19.4857 34.6776C19.3972 34.5891 19.2772 34.5394 19.152 34.5394H16.6352C16.5732 34.5394 16.5119 34.5516 16.4546 34.5753C16.3974 34.599 16.3453 34.6338 16.3015 34.6776C16.2577 34.7214 16.2229 34.7734 16.1992 34.8307C16.1755 34.8879 16.1633 34.9493 16.1633 35.0113V37.0562H13.9611V19.7528H21.8262V24.9438ZM22.2981 18.809H18.3655V15.3483H26.2307V24.4719H22.7701V22.8989H24.1858C24.4465 22.8989 24.6577 22.6877 24.6577 22.427C24.6577 22.1663 24.4464 21.9551 24.1858 21.9551H22.7701V20.382H24.1858C24.4465 20.382 24.6577 20.1708 24.6577 19.9101C24.6577 19.6494 24.4464 19.4382 24.1858 19.4382H22.7701V19.281C22.7701 19.219 22.7579 19.1576 22.7342 19.1003C22.7104 19.0431 22.6757 18.991 22.6318 18.9472C22.588 18.9034 22.536 18.8686 22.4787 18.8449C22.4215 18.8212 22.3601 18.809 22.2981 18.809ZM30.6352 37.0562H22.7701V25.4158H30.6352V37.0562ZM35.0397 37.0562H31.579V24.3146C31.579 24.0539 31.3677 23.8427 31.1071 23.8427C30.8465 23.8427 30.6352 24.0539 30.6352 24.3146V24.4718H29.6914V24.3146C29.6914 24.0539 29.4801 23.8427 29.2195 23.8427C28.9589 23.8427 28.7476 24.0539 28.7476 24.3146V24.4718H27.1746V12.8314H35.0398V37.0562H35.0397Z" fill="#E93528"/>
<path d="M24.8151 36.1122C24.9402 36.1122 25.0603 36.0625 25.1488 35.974C25.2372 35.8855 25.287 35.7655 25.287 35.6403V26.8314C25.287 26.5707 25.0757 26.3595 24.8151 26.3595C24.5545 26.3595 24.3432 26.5707 24.3432 26.8314V35.6404C24.3432 35.7024 24.3554 35.7637 24.3791 35.821C24.4028 35.8782 24.4376 35.9302 24.4814 35.974C24.5252 36.0179 24.5772 36.0526 24.6345 36.0763C24.6918 36.1 24.7531 36.1122 24.8151 36.1122ZM26.7027 36.1122C26.8279 36.1122 26.9479 36.0625 27.0364 35.974C27.1249 35.8855 27.1746 35.7655 27.1746 35.6403V26.8314C27.1746 26.5707 26.9633 26.3595 26.7027 26.3595C26.4421 26.3595 26.2308 26.5707 26.2308 26.8314V35.6404C26.2308 35.7024 26.243 35.7637 26.2668 35.821C26.2905 35.8782 26.3252 35.9302 26.3691 35.974C26.4129 36.0179 26.4649 36.0526 26.5222 36.0763C26.5794 36.1 26.6408 36.1122 26.7027 36.1122ZM28.5903 36.1122C28.7155 36.1122 28.8355 36.0625 28.924 35.974C29.0125 35.8855 29.0622 35.7655 29.0622 35.6403V26.8314C29.0622 26.5707 28.8509 26.3595 28.5903 26.3595C28.3297 26.3595 28.1184 26.5707 28.1184 26.8314V35.6404C28.1184 35.7655 28.1682 35.8855 28.2567 35.974C28.3452 36.0625 28.4652 36.1122 28.5903 36.1122ZM29.2196 15.9773C29.2815 15.9773 29.3429 15.9651 29.4002 15.9414C29.4574 15.9177 29.5094 15.8829 29.5533 15.8391C29.5971 15.7953 29.6318 15.7432 29.6556 15.686C29.6793 15.6287 29.6915 15.5673 29.6915 15.5054V14.8762C29.6915 14.6155 29.4801 14.4043 29.2196 14.4043C28.959 14.4043 28.7477 14.6155 28.7477 14.8762V15.5054C28.7477 15.5674 28.7599 15.6288 28.7836 15.686C28.8073 15.7433 28.8421 15.7953 28.8859 15.8391C28.9297 15.8829 28.9817 15.9177 29.039 15.9414C29.0962 15.9651 29.1576 15.9773 29.2196 15.9773ZM31.1072 15.9773C31.1692 15.9773 31.2306 15.9651 31.2878 15.9414C31.3451 15.9177 31.3971 15.8829 31.4409 15.8391C31.4847 15.7953 31.5195 15.7432 31.5432 15.686C31.5669 15.6287 31.5791 15.5673 31.5791 15.5054V14.8762C31.5791 14.6155 31.3678 14.4043 31.1072 14.4043C30.8466 14.4043 30.6353 14.6155 30.6353 14.8762V15.5054C30.6353 15.5674 30.6475 15.6288 30.6712 15.686C30.695 15.7433 30.7297 15.7953 30.7735 15.8391C30.8174 15.8829 30.8694 15.9177 30.9266 15.9414C30.9839 15.9651 31.0452 15.9773 31.1072 15.9773ZM32.9949 15.9773C33.0568 15.9773 33.1182 15.9651 33.1755 15.9414C33.2327 15.9177 33.2847 15.8829 33.3286 15.8391C33.3724 15.7953 33.4071 15.7432 33.4309 15.686C33.4546 15.6287 33.4668 15.5673 33.4668 15.5054V14.8762C33.4668 14.6155 33.2554 14.4043 32.9949 14.4043C32.7343 14.4043 32.523 14.6155 32.523 14.8762V15.5054C32.523 15.5674 32.5352 15.6288 32.5589 15.686C32.5826 15.7433 32.6174 15.7953 32.6612 15.8391C32.705 15.8829 32.757 15.9177 32.8143 15.9414C32.8715 15.9651 32.9329 15.9773 32.9949 15.9773ZM29.2196 19.1233C29.2815 19.1233 29.3429 19.1111 29.4002 19.0874C29.4574 19.0637 29.5094 19.029 29.5533 18.9851C29.5971 18.9413 29.6318 18.8893 29.6556 18.832C29.6793 18.7748 29.6915 18.7134 29.6915 18.6514V18.0222C29.6915 17.7615 29.4801 17.5503 29.2196 17.5503C28.959 17.5503 28.7477 17.7615 28.7477 18.0222V18.6514C28.7477 18.7134 28.7599 18.7748 28.7836 18.832C28.8073 18.8893 28.842 18.9413 28.8859 18.9851C28.9297 19.029 28.9817 19.0637 29.039 19.0874C29.0962 19.1111 29.1576 19.1233 29.2196 19.1233ZM31.1072 19.1233C31.1692 19.1233 31.2306 19.1111 31.2878 19.0874C31.3451 19.0637 31.3971 19.029 31.4409 18.9851C31.4847 18.9413 31.5195 18.8893 31.5432 18.832C31.5669 18.7748 31.5791 18.7134 31.5791 18.6514V18.0222C31.5791 17.7615 31.3678 17.5503 31.1072 17.5503C30.8466 17.5503 30.6353 17.7615 30.6353 18.0222V18.6514C30.6353 18.7134 30.6475 18.7748 30.6712 18.832C30.6949 18.8893 30.7297 18.9413 30.7735 18.9851C30.8173 19.029 30.8694 19.0637 30.9266 19.0874C30.9839 19.1111 31.0452 19.1233 31.1072 19.1233ZM32.9949 19.1233C33.0568 19.1233 33.1182 19.1111 33.1755 19.0874C33.2327 19.0637 33.2847 19.029 33.3286 18.9851C33.3724 18.9413 33.4071 18.8893 33.4309 18.832C33.4546 18.7748 33.4668 18.7134 33.4668 18.6514V18.0222C33.4668 17.7615 33.2554 17.5503 32.9949 17.5503C32.7343 17.5503 32.523 17.7615 32.523 18.0222V18.6514C32.523 18.7134 32.5352 18.7748 32.5589 18.832C32.5826 18.8893 32.6173 18.9413 32.6612 18.9851C32.705 19.029 32.757 19.0637 32.8143 19.0874C32.8715 19.1111 32.9329 19.1233 32.9949 19.1233ZM29.2196 22.2695C29.2815 22.2695 29.3429 22.2573 29.4002 22.2335C29.4574 22.2098 29.5094 22.1751 29.5533 22.1313C29.5971 22.0874 29.6318 22.0354 29.6556 21.9782C29.6793 21.9209 29.6915 21.8595 29.6915 21.7976V21.1683C29.6915 20.9076 29.4801 20.6964 29.2196 20.6964C28.959 20.6964 28.7477 20.9076 28.7477 21.1683V21.7976C28.7477 21.9227 28.7974 22.0427 28.8859 22.1312C28.9744 22.2197 29.0944 22.2695 29.2196 22.2695ZM31.1072 22.2695C31.1692 22.2695 31.2306 22.2573 31.2878 22.2335C31.3451 22.2098 31.3971 22.1751 31.4409 22.1313C31.4847 22.0874 31.5195 22.0354 31.5432 21.9782C31.5669 21.9209 31.5791 21.8595 31.5791 21.7976V21.1683C31.5791 20.9076 31.3678 20.6964 31.1072 20.6964C30.8466 20.6964 30.6353 20.9076 30.6353 21.1683V21.7976C30.6353 21.9227 30.685 22.0427 30.7735 22.1312C30.862 22.2197 30.9821 22.2695 31.1072 22.2695ZM32.9949 22.2695C33.0568 22.2695 33.1182 22.2573 33.1755 22.2335C33.2327 22.2098 33.2847 22.1751 33.3286 22.1313C33.3724 22.0874 33.4071 22.0354 33.4309 21.9782C33.4546 21.9209 33.4668 21.8595 33.4668 21.7976V21.1683C33.4668 20.9076 33.2554 20.6964 32.9949 20.6964C32.7343 20.6964 32.523 20.9076 32.523 21.1683V21.7976C32.523 21.9227 32.5727 22.0427 32.6612 22.1312C32.7497 22.2197 32.8697 22.2695 32.9949 22.2695ZM16.0061 23.5279C16.0681 23.5279 16.1294 23.5157 16.1867 23.492C16.2439 23.4682 16.296 23.4335 16.3398 23.3897C16.3836 23.3458 16.4184 23.2938 16.4421 23.2366C16.4658 23.1793 16.478 23.1179 16.478 23.056V22.4267C16.478 22.166 16.2667 21.9548 16.0061 21.9548C15.7455 21.9548 15.5342 22.166 15.5342 22.4267V23.056C15.5342 23.1811 15.5839 23.3011 15.6724 23.3896C15.7609 23.4781 15.8809 23.5279 16.0061 23.5279ZM17.8937 23.5279C17.9557 23.5279 18.0171 23.5157 18.0743 23.492C18.1316 23.4682 18.1836 23.4335 18.2274 23.3897C18.2712 23.3458 18.306 23.2938 18.3297 23.2366C18.3534 23.1793 18.3656 23.1179 18.3656 23.056V22.4267C18.3656 22.166 18.1543 21.9548 17.8937 21.9548C17.6331 21.9548 17.4218 22.166 17.4218 22.4267V23.056C17.4218 23.1811 17.4715 23.3012 17.56 23.3897C17.6485 23.4781 17.7686 23.5279 17.8937 23.5279ZM19.7814 23.5279C19.8433 23.5279 19.9047 23.5157 19.962 23.492C20.0192 23.4682 20.0713 23.4335 20.1151 23.3897C20.1589 23.3458 20.1937 23.2938 20.2174 23.2366C20.2411 23.1793 20.2533 23.1179 20.2533 23.056V22.4267C20.2533 22.166 20.042 21.9548 19.7814 21.9548C19.5208 21.9548 19.3095 22.166 19.3095 22.4267V23.056C19.3095 23.1811 19.3592 23.3012 19.4477 23.3897C19.5362 23.4781 19.6562 23.5279 19.7814 23.5279ZM16.0061 26.6739C16.0681 26.6739 16.1294 26.6617 16.1867 26.638C16.2439 26.6143 16.296 26.5796 16.3398 26.5357C16.3836 26.4919 16.4184 26.4399 16.4421 26.3826C16.4658 26.3254 16.478 26.264 16.478 26.202V25.5728C16.478 25.3121 16.2667 25.1009 16.0061 25.1009C15.7455 25.1009 15.5342 25.3121 15.5342 25.5728V26.202C15.5342 26.3272 15.5839 26.4472 15.6724 26.5357C15.7609 26.6242 15.8809 26.6739 16.0061 26.6739ZM17.8937 26.6739C17.9557 26.6739 18.0171 26.6617 18.0743 26.638C18.1316 26.6143 18.1836 26.5796 18.2274 26.5357C18.2712 26.4919 18.306 26.4399 18.3297 26.3826C18.3534 26.3254 18.3656 26.264 18.3656 26.202V25.5728C18.3656 25.3121 18.1543 25.1009 17.8937 25.1009C17.6331 25.1009 17.4218 25.3121 17.4218 25.5728V26.202C17.4218 26.3272 17.4715 26.4472 17.56 26.5357C17.6485 26.6242 17.7686 26.6739 17.8937 26.6739ZM19.7814 26.6739C19.8433 26.6739 19.9047 26.6617 19.962 26.638C20.0192 26.6143 20.0713 26.5796 20.1151 26.5357C20.1589 26.4919 20.1937 26.4399 20.2174 26.3826C20.2411 26.3254 20.2533 26.264 20.2533 26.202V25.5728C20.2533 25.3121 20.042 25.1009 19.7814 25.1009C19.5208 25.1009 19.3095 25.3121 19.3095 25.5728V26.202C19.3095 26.3272 19.3592 26.4472 19.4477 26.5357C19.5362 26.6242 19.6562 26.6739 19.7814 26.6739ZM16.0061 29.82C16.0681 29.82 16.1294 29.8078 16.1867 29.7841C16.2439 29.7604 16.296 29.7256 16.3398 29.6818C16.3836 29.638 16.4184 29.5859 16.4421 29.5287C16.4658 29.4714 16.478 29.4101 16.478 29.3481V28.7189C16.478 28.4582 16.2667 28.247 16.0061 28.247C15.7455 28.247 15.5342 28.4582 15.5342 28.7189V29.3481C15.5342 29.4101 15.5464 29.4714 15.5701 29.5287C15.5938 29.5859 15.6286 29.638 15.6724 29.6818C15.7162 29.7256 15.7682 29.7604 15.8255 29.7841C15.8827 29.8078 15.9441 29.82 16.0061 29.82ZM17.8937 29.82C17.9557 29.82 18.0171 29.8078 18.0743 29.7841C18.1316 29.7604 18.1836 29.7256 18.2274 29.6818C18.2712 29.638 18.306 29.5859 18.3297 29.5287C18.3534 29.4714 18.3656 29.4101 18.3656 29.3481V28.7189C18.3656 28.4582 18.1543 28.247 17.8937 28.247C17.6331 28.247 17.4218 28.4582 17.4218 28.7189V29.3481C17.4218 29.4101 17.434 29.4714 17.4577 29.5287C17.4814 29.5859 17.5162 29.638 17.56 29.6818C17.6038 29.7256 17.6559 29.7604 17.7131 29.7841C17.7704 29.8078 17.8318 29.82 17.8937 29.82ZM19.7814 29.82C19.8433 29.82 19.9047 29.8078 19.962 29.7841C20.0192 29.7604 20.0713 29.7256 20.1151 29.6818C20.1589 29.638 20.1937 29.5859 20.2174 29.5287C20.2411 29.4714 20.2533 29.4101 20.2533 29.3481V28.7189C20.2533 28.4582 20.042 28.247 19.7814 28.247C19.5208 28.247 19.3095 28.4582 19.3095 28.7189V29.3481C19.3095 29.4101 19.3217 29.4714 19.3454 29.5287C19.3691 29.5859 19.4039 29.638 19.4477 29.6818C19.4915 29.7256 19.5435 29.7604 19.6008 29.7841C19.658 29.8078 19.7194 29.82 19.7814 29.82ZM16.0061 32.9661C16.0681 32.9661 16.1294 32.9539 16.1867 32.9301C16.2439 32.9064 16.296 32.8717 16.3398 32.8279C16.3836 32.784 16.4184 32.732 16.4421 32.6748C16.4658 32.6175 16.478 32.5561 16.478 32.4942V31.8649C16.478 31.6042 16.2667 31.393 16.0061 31.393C15.7455 31.393 15.5342 31.6042 15.5342 31.8649V32.4942C15.5342 32.6193 15.5839 32.7393 15.6724 32.8278C15.7609 32.9163 15.8809 32.9661 16.0061 32.9661ZM17.8937 32.9661C17.9557 32.9661 18.0171 32.9539 18.0743 32.9301C18.1316 32.9064 18.1836 32.8717 18.2274 32.8279C18.2712 32.784 18.306 32.732 18.3297 32.6748C18.3534 32.6175 18.3656 32.5561 18.3656 32.4942V31.8649C18.3656 31.6042 18.1543 31.393 17.8937 31.393C17.6331 31.393 17.4218 31.6042 17.4218 31.8649V32.4942C17.4218 32.5561 17.434 32.6175 17.4577 32.6748C17.4814 32.732 17.5162 32.784 17.56 32.8279C17.6038 32.8717 17.6559 32.9064 17.7131 32.9301C17.7704 32.9539 17.8318 32.9661 17.8937 32.9661ZM19.7814 32.9661C19.8433 32.9661 19.9047 32.9539 19.962 32.9301C20.0192 32.9064 20.0713 32.8717 20.1151 32.8279C20.1589 32.784 20.1937 32.732 20.2174 32.6748C20.2411 32.6175 20.2533 32.5561 20.2533 32.4942V31.8649C20.2533 31.6042 20.042 31.393 19.7814 31.393C19.5208 31.393 19.3095 31.6042 19.3095 31.8649V32.4942C19.3095 32.5561 19.3217 32.6175 19.3454 32.6748C19.3691 32.732 19.4039 32.784 19.4477 32.8279C19.4915 32.8717 19.5435 32.9064 19.6008 32.9301C19.658 32.9539 19.7194 32.9661 19.7814 32.9661ZM32.9949 25.4155C33.0568 25.4155 33.1182 25.4033 33.1755 25.3796C33.2327 25.3559 33.2847 25.3211 33.3286 25.2773C33.3724 25.2335 33.4071 25.1815 33.4309 25.1242C33.4546 25.067 33.4668 25.0056 33.4668 24.9436V24.3144C33.4668 24.0537 33.2554 23.8425 32.9949 23.8425C32.7343 23.8425 32.523 24.0537 32.523 24.3144V24.9436C32.523 25.0688 32.5727 25.1888 32.6612 25.2773C32.7497 25.3658 32.8697 25.4155 32.9949 25.4155ZM32.9949 28.5616C33.0568 28.5616 33.1182 28.5494 33.1755 28.5257C33.2327 28.502 33.2847 28.4672 33.3286 28.4234C33.3724 28.3796 33.4071 28.3275 33.4309 28.2703C33.4546 28.213 33.4668 28.1517 33.4668 28.0897V27.4604C33.4668 27.1997 33.2554 26.9885 32.9949 26.9885C32.7343 26.9885 32.523 27.1997 32.523 27.4604V28.0897C32.523 28.2148 32.5727 28.3349 32.6612 28.4234C32.7497 28.5119 32.8697 28.5616 32.9949 28.5616ZM32.9949 31.7076C33.0568 31.7076 33.1182 31.6954 33.1755 31.6717C33.2327 31.648 33.2847 31.6133 33.3286 31.5694C33.3724 31.5256 33.4071 31.4736 33.4309 31.4163C33.4546 31.3591 33.4668 31.2977 33.4668 31.2357V30.6065C33.4668 30.3458 33.2554 30.1346 32.9949 30.1346C32.7343 30.1346 32.523 30.3458 32.523 30.6065V31.2357C32.523 31.2977 32.5352 31.3591 32.5589 31.4163C32.5826 31.4736 32.6174 31.5256 32.6612 31.5694C32.705 31.6132 32.757 31.648 32.8143 31.6717C32.8715 31.6954 32.9329 31.7076 32.9949 31.7076ZM32.9949 34.8537C33.0568 34.8537 33.1182 34.8415 33.1755 34.8178C33.2327 34.7941 33.2847 34.7593 33.3286 34.7155C33.3724 34.6717 33.4071 34.6197 33.4309 34.5624C33.4546 34.5051 33.4668 34.4438 33.4668 34.3818V33.7526C33.4668 33.4919 33.2554 33.2807 32.9949 33.2807C32.7343 33.2807 32.523 33.4919 32.523 33.7526V34.3818C32.523 34.507 32.5727 34.627 32.6612 34.7155C32.7497 34.804 32.8697 34.8537 32.9949 34.8537ZM24.6578 17.393C24.6578 17.2679 24.608 17.1478 24.5195 17.0593C24.431 16.9708 24.311 16.9211 24.1859 16.9211H20.4106C20.3486 16.9211 20.2872 16.9333 20.23 16.957C20.1727 16.9807 20.1207 17.0155 20.0769 17.0593C20.033 17.1031 19.9983 17.1552 19.9746 17.2124C19.9509 17.2697 19.9386 17.3311 19.9387 17.393C19.9387 17.5182 19.9884 17.6382 20.0769 17.7267C20.1654 17.8152 20.2854 17.8649 20.4106 17.8649H24.1859C24.2478 17.8649 24.3092 17.8527 24.3664 17.829C24.4237 17.8053 24.4757 17.7705 24.5196 17.7267C24.5634 17.6829 24.5981 17.6309 24.6218 17.5736C24.6456 17.5164 24.6578 17.455 24.6578 17.393Z" fill="#F8BC16"/>
</svg>
