<svg width="49" height="48" viewBox="0 0 49 48" fill="none" xmlns="http://www.w3.org/2000/svg">
<path d="M24.1719 0C37.4267 0 48.1719 10.7452 48.1719 24C48.1719 37.2548 37.4267 48 24.1719 48C10.917 48 0.171875 37.2548 0.171875 24C0.171875 10.7452 10.917 0 24.1719 0Z" fill="#282828"/>
<path d="M24.1719 0C37.4267 0 48.1719 10.7452 48.1719 24C48.1719 37.2548 37.4267 48 24.1719 48C10.917 48 0.171875 37.2548 0.171875 24C0.171875 10.7452 10.917 0 24.1719 0Z" stroke="#E5E7EB"/>
<g clip-path="url(#clip0_1100_122)">
<path fill-rule="evenodd" clip-rule="evenodd" d="M13.911 20.9744C13.7273 19.4947 13.2179 18.9301 12.8278 18.3444C12.4979 17.8493 12.2384 17.3421 12.2384 16.4193C12.2384 14.2861 14.0911 12.5559 16.3776 12.5559C17.6819 12.5559 18.8456 13.1193 19.6043 13.9995H29.2864C29.3956 13.9995 29.5003 14.04 29.5775 14.1121L32.9278 17.239C32.966 17.2747 32.9963 17.317 33.017 17.3637C33.0377 17.4103 33.0484 17.4603 33.0484 17.5107V27.9513C33.3137 27.9129 33.5819 27.8937 33.8504 27.8937C36.7106 27.8937 39.0295 30.0581 39.0295 32.7276C39.0295 35.3972 36.7106 37.561 33.8504 37.561C31.4622 37.561 29.4515 36.0527 28.8528 34.001H16.3636C16.2544 34.001 16.1496 33.9605 16.0724 33.8884C15.9952 33.8163 15.9518 33.7186 15.9518 33.6166V25.1745H15.5328C14.9862 25.1745 14.5395 24.7571 14.5395 24.2483V24.0561H14.3177C13.7531 24.0561 13.2899 23.6244 13.2899 23.0961V21.8547C13.2899 21.4622 13.5467 21.1224 13.911 20.9744ZM20.1207 14.7681C20.3748 15.2688 20.5169 15.8286 20.5169 16.4193C20.5169 17.3421 20.2573 17.8493 19.9275 18.3444C19.5374 18.9301 19.0279 19.4948 18.8443 20.9745C19.2089 21.1226 19.4653 21.4624 19.4653 21.8547V23.0961C19.4653 23.6242 19.0026 24.0561 18.4367 24.0561H18.2157V24.2483C18.2157 24.7571 17.7691 25.1745 17.2225 25.1745H16.7754V33.2323H28.6991C28.6804 33.0647 28.6711 32.8962 28.6712 32.7276C28.6712 30.588 30.1608 28.7729 32.2249 28.1366V17.895H29.2864C29.1771 17.895 29.0724 17.8545 28.9952 17.7825C28.918 17.7104 28.8746 17.6126 28.8746 17.5107V14.7681H20.1207ZM18.0248 20.8955C18.1928 19.5127 18.6126 18.8354 19.0007 18.27C19.3563 17.7519 19.6934 17.3489 19.6934 16.4193C19.6934 15.7434 19.4612 15.118 19.067 14.609C18.4645 13.831 17.4843 13.3246 16.3776 13.3246C14.546 13.3246 13.0619 14.7105 13.0619 16.4193C13.0619 17.3489 13.3989 17.7519 13.7545 18.27C14.1426 18.8354 14.5625 19.5127 14.7305 20.8955H18.0248ZM31.6425 17.1264L29.6981 15.3117V17.1264H31.6425ZM33.8504 28.6623C31.4449 28.6623 29.4947 30.4826 29.4947 32.7276C29.4947 34.9727 31.4449 36.7924 33.8504 36.7924C36.2558 36.7924 38.206 34.9727 38.206 32.7276C38.206 30.4826 36.2558 28.6623 33.8504 28.6623ZM33.4313 30.4553L33.4246 30.1987C33.422 30.0968 33.4629 29.9981 33.5382 29.9243C33.6135 29.8505 33.7171 29.8077 33.8263 29.8052C33.9355 29.8028 34.0412 29.8409 34.1202 29.9112C34.1993 29.9815 34.2452 30.0782 34.2479 30.1801L34.2553 30.4649C34.414 30.5046 34.5806 30.5637 34.7306 30.6377C34.9509 30.7463 35.1333 30.8885 35.2344 31.0319C35.2943 31.1171 35.3156 31.221 35.2935 31.3208C35.2714 31.4206 35.2077 31.5082 35.1165 31.5642C35.0253 31.6201 34.9139 31.6399 34.807 31.6193C34.7001 31.5987 34.6063 31.5393 34.5462 31.4542C34.5081 31.4 34.4291 31.3583 34.3459 31.3172C34.1812 31.236 33.9848 31.1759 33.8504 31.1759C33.4421 31.1759 33.0898 31.4283 33.0898 31.7686C33.0898 32.1088 33.4421 32.3612 33.8504 32.3612C34.7375 32.3612 35.4344 32.983 35.4344 33.7224C35.4344 34.3397 34.9478 34.8758 34.2703 35.0355L34.2761 35.256C34.2787 35.3579 34.2378 35.4566 34.1625 35.5304C34.0872 35.6042 33.9836 35.6471 33.8745 35.6496C33.7653 35.652 33.6596 35.6139 33.5805 35.5437C33.5014 35.4734 33.4555 35.3767 33.4528 35.2748L33.4468 35.045C33.113 34.9743 32.8701 34.808 32.5872 34.5593C32.4218 34.4138 32.4139 34.1704 32.5698 34.016C32.7256 33.8616 32.9864 33.8543 33.1518 33.9998C33.368 34.1898 33.5321 34.3151 33.8504 34.3151C34.2585 34.3151 34.6109 34.0623 34.6109 33.7224C34.6109 33.3822 34.2585 33.1298 33.8504 33.1298C32.9632 33.1298 32.2663 32.508 32.2663 31.7686C32.2663 31.1504 32.7532 30.6145 33.4313 30.4553ZM16.3781 13.8654C17.8888 13.8654 19.1143 15.0083 19.1143 16.4193C19.1143 17.8302 17.8888 18.9731 16.3781 18.9731C14.8664 18.9731 13.6409 17.8301 13.6409 16.4193C13.6409 15.0084 14.8664 13.8654 16.3781 13.8654ZM16.3781 14.6341C15.3213 14.6341 14.4645 15.433 14.4645 16.4193C14.4645 17.4056 15.3213 18.2045 16.3781 18.2045C17.4341 18.2045 18.2908 17.4055 18.2908 16.4193C18.2908 15.433 17.4341 14.6341 16.3781 14.6341ZM16.6502 17.8714C16.6039 17.9638 16.5203 18.0352 16.4177 18.07C16.3151 18.1048 16.2019 18.1002 16.1029 18.0572C16.0039 18.0141 15.9274 17.936 15.8901 17.8403C15.8528 17.7445 15.8577 17.6388 15.9039 17.5464L16.2752 16.8036H15.8335C15.7643 16.8036 15.6962 16.7873 15.6355 16.7562C15.5748 16.7251 15.5234 16.6802 15.4862 16.6257C15.449 16.5712 15.4272 16.5088 15.4227 16.4443C15.4181 16.3798 15.4311 16.3153 15.4604 16.2568L16.1051 14.9671C16.1513 14.8748 16.2349 14.8033 16.3375 14.7685C16.4401 14.7337 16.5534 14.7383 16.6524 14.7813C16.7513 14.8244 16.8278 14.9025 16.8651 14.9982C16.9025 15.094 16.8975 15.1997 16.8514 15.2921L16.4801 16.035H16.9217C16.9909 16.035 17.0591 16.0513 17.1198 16.0823C17.1805 16.1134 17.2318 16.1583 17.2691 16.2128C17.3062 16.2673 17.3281 16.3297 17.3326 16.3942C17.3371 16.4587 17.3242 16.5232 17.2949 16.5818L16.6502 17.8714ZM30.4242 27.5294C30.6515 27.5294 30.836 27.7016 30.836 27.9137C30.836 28.1258 30.6515 28.298 30.4242 28.298H24.5001C24.2729 28.298 24.0884 28.1258 24.0884 27.9137C24.0884 27.7016 24.2729 27.5294 24.5001 27.5294H30.4242ZM22.3728 16.035C22.6001 16.035 22.7846 16.2071 22.7846 16.4193C22.7846 16.6314 22.6001 16.8036 22.3728 16.8036H21.0746C20.8474 16.8036 20.6628 16.6314 20.6628 16.4193C20.6628 16.2071 20.8474 16.035 21.0746 16.035H22.3728ZM20.9079 20.104C20.9851 20.176 21.0285 20.2738 21.0285 20.3757C21.0286 20.4776 20.9853 20.5753 20.9082 20.6475C20.831 20.7195 20.7262 20.76 20.6171 20.7601C20.5079 20.7601 20.4031 20.7197 20.3258 20.6478L19.4076 19.7916C19.3304 19.7195 19.287 19.6218 19.287 19.5199C19.2869 19.418 19.3302 19.3202 19.4074 19.2481C19.4846 19.176 19.5893 19.1355 19.6985 19.1355C19.8077 19.1354 19.9124 19.1758 19.9897 19.2478L20.9079 20.104ZM30.4242 19.7036C30.6515 19.7036 30.836 19.8758 30.836 20.0879C30.836 20.3 30.6515 20.4722 30.4242 20.4722H22.1054C21.8782 20.4722 21.6936 20.3 21.6936 20.0879C21.6936 19.8758 21.8782 19.7036 22.1054 19.7036H30.4242ZM30.4242 24.9204C30.6515 24.9204 30.836 25.0926 30.836 25.3047C30.836 25.5169 30.6515 25.689 30.4242 25.689H18.576C18.3488 25.689 18.1642 25.5169 18.1642 25.3047C18.1642 25.0926 18.3488 24.9204 18.576 24.9204H30.4242ZM30.4242 22.3115C30.6515 22.3115 30.836 22.4836 30.836 22.6958C30.836 22.9079 30.6515 23.0801 30.4242 23.0801H20.3407C20.1135 23.0801 19.9289 22.9079 19.9289 22.6958C19.9289 22.4836 20.1135 22.3115 20.3407 22.3115H30.4242ZM14.3177 21.6642C14.2636 21.6643 14.2118 21.6845 14.1735 21.7202C14.1353 21.7559 14.1137 21.8042 14.1135 21.8547V23.0961C14.1135 23.2012 14.2053 23.2874 14.3177 23.2874H14.9513C15.0605 23.2874 15.1652 23.3279 15.2425 23.4C15.3197 23.4721 15.3631 23.5698 15.3631 23.6718V24.2483C15.3631 24.3351 15.4396 24.4059 15.5328 24.4059H17.2225C17.3156 24.4059 17.3922 24.3351 17.3922 24.2483V23.6718C17.3922 23.5698 17.4356 23.4721 17.5128 23.4C17.59 23.3279 17.6947 23.2874 17.8039 23.2874H18.4367C18.491 23.2873 18.5431 23.2671 18.5815 23.2312C18.62 23.1954 18.6416 23.1468 18.6418 23.0961V21.8547C18.6418 21.7499 18.5494 21.6642 18.4367 21.6642H14.3177ZM15.9659 10.8238C15.9659 10.6117 16.1504 10.4395 16.3776 10.4395C16.6049 10.4395 16.7894 10.6117 16.7894 10.8238V12.0346C16.7894 12.2467 16.6049 12.4189 16.3776 12.4189C16.1504 12.4189 15.9659 12.2467 15.9659 12.0346V10.8238ZM20.3258 12.1908C20.4031 12.1188 20.5079 12.0784 20.6171 12.0784C20.7262 12.0785 20.831 12.119 20.9082 12.191C20.9853 12.2632 21.0286 12.3609 21.0285 12.4628C21.0285 12.5647 20.9851 12.6625 20.9079 12.7345L19.9897 13.5907C19.9124 13.6627 19.8077 13.7031 19.6985 13.703C19.5893 13.703 19.4846 13.6625 19.4074 13.5904C19.3302 13.5183 19.2869 13.4205 19.287 13.3186C19.2871 13.2167 19.3304 13.119 19.4076 13.0469L20.3258 12.1908ZM11.8472 12.7344C11.7701 12.6623 11.7267 12.5646 11.7267 12.4626C11.7267 12.3607 11.7701 12.263 11.8472 12.1909C11.9245 12.1189 12.0292 12.0784 12.1384 12.0784C12.2476 12.0784 12.3523 12.1189 12.4296 12.1909L13.3469 13.0471C13.5076 13.197 13.5076 13.4406 13.3469 13.5906C13.1862 13.7405 12.9252 13.7405 12.7646 13.5906L11.8472 12.7344ZM10.3825 16.8036C10.1552 16.8036 9.9707 16.6314 9.9707 16.4193C9.9707 16.2071 10.1552 16.035 10.3825 16.035H11.6798C11.9071 16.035 12.0915 16.2071 12.0915 16.4193C12.0915 16.6314 11.9071 16.8036 11.6798 16.8036H10.3825ZM12.4296 20.6476C12.3523 20.7196 12.2476 20.7601 12.1384 20.7601C12.0292 20.7601 11.9245 20.7196 11.8472 20.6476C11.7701 20.5755 11.7267 20.4778 11.7267 20.3759C11.7267 20.274 11.7701 20.1762 11.8472 20.1041L12.7646 19.248C12.8418 19.1759 12.9465 19.1355 13.0557 19.1355C13.1649 19.1355 13.2696 19.1759 13.3469 19.248C13.4241 19.3201 13.4674 19.4178 13.4674 19.5197C13.4674 19.6216 13.4241 19.7194 13.3469 19.7915L12.4296 20.6476Z" fill="url(#paint0_linear_1100_122)"/>
</g>
<defs>
<linearGradient id="paint0_linear_1100_122" x1="39.0295" y1="10.4395" x2="11.9724" y2="39.4293" gradientUnits="userSpaceOnUse">
<stop stop-color="#E93528"/>
<stop offset="1" stop-color="#F8BC16"/>
</linearGradient>
<clipPath id="clip0_1100_122">
<rect width="30" height="28" fill="white" transform="translate(9.5 10)"/>
</clipPath>
</defs>
</svg>
