<svg width="48" height="48" viewBox="0 0 48 48" fill="none" xmlns="http://www.w3.org/2000/svg">
<path d="M0 24C0 10.7452 10.7452 0 24 0C37.2548 0 48 10.7452 48 24C48 37.2548 37.2548 48 24 48C10.7452 48 0 37.2548 0 24Z" fill="#282828"/>
<path fill-rule="evenodd" clip-rule="evenodd" d="M12.9403 20.535C12.7566 19.0553 12.2472 18.4906 11.8571 17.9049C11.5272 17.4098 11.2676 16.9026 11.2676 15.9798C11.2676 13.8467 13.1204 12.1165 15.4069 12.1165C16.7112 12.1165 17.8749 12.6798 18.6336 13.5601H28.3156C28.4249 13.5601 28.5296 13.6006 28.6068 13.6726L31.9571 16.7996C31.9953 16.8352 32.0256 16.8776 32.0463 16.9242C32.067 16.9708 32.0777 17.0208 32.0777 17.0713V27.5119C32.343 27.4735 32.6111 27.4542 32.8797 27.4543C35.7399 27.4543 38.0588 29.6186 38.0588 32.2882C38.0588 34.9578 35.7399 37.1216 32.8797 37.1216C30.4915 37.1216 28.4808 35.6132 27.8821 33.5615H15.3929C15.2837 33.5615 15.1789 33.521 15.1017 33.4489C15.0245 33.3769 14.9811 33.2791 14.9811 33.1772V24.7351H14.5621C14.0155 24.7351 13.5688 24.3176 13.5688 23.8089V23.6166H13.347C12.7824 23.6166 12.3192 23.1849 12.3192 22.6566V21.4153C12.3192 21.0228 12.576 20.6829 12.9403 20.535ZM19.15 14.3287C19.4041 14.8294 19.5462 15.3891 19.5462 15.9798C19.5462 16.9026 19.2866 17.4098 18.9568 17.9049C18.5666 18.4906 18.0572 19.0553 17.8736 20.5351C18.2382 20.6831 18.4946 21.0229 18.4946 21.4153V22.6566C18.4946 23.1848 18.0319 23.6166 17.466 23.6166H17.245V23.8089C17.245 24.3176 16.7984 24.7351 16.2518 24.7351H15.8046V32.7929H27.7284C27.7097 32.6252 27.7004 32.4567 27.7005 32.2882C27.7005 30.1485 29.1901 28.3335 31.2542 27.6972V17.4556H28.3156C28.2064 17.4556 28.1017 17.4151 28.0245 17.343C27.9473 17.2709 27.9039 17.1732 27.9039 17.0713V14.3287H19.15ZM17.0541 20.4561C17.2221 19.0732 17.6419 18.3959 18.03 17.8306C18.3856 17.3124 18.7227 16.9094 18.7227 15.9798C18.7227 15.3039 18.4905 14.6785 18.0963 14.1695C17.4938 13.3916 16.5136 12.8851 15.4069 12.8851C13.5753 12.8851 12.0912 14.271 12.0912 15.9798C12.0912 16.9094 12.4282 17.3124 12.7838 17.8306C13.1719 18.3959 13.5918 19.0732 13.7598 20.4561H17.0541ZM30.6718 16.6869L28.7274 14.8722V16.6869H30.6718ZM32.8797 28.2229C30.4742 28.2229 28.524 30.0431 28.524 32.2882C28.524 34.5333 30.4742 36.3529 32.8797 36.3529C35.2851 36.3529 37.2353 34.5333 37.2353 32.2882C37.2353 30.0431 35.2851 28.2229 32.8797 28.2229ZM32.4606 30.0158L32.4539 29.7592C32.4513 29.6573 32.4922 29.5587 32.5675 29.4849C32.6428 29.4111 32.7464 29.3682 32.8556 29.3657C32.9647 29.3633 33.0705 29.4014 33.1495 29.4717C33.2286 29.542 33.2745 29.6387 33.2772 29.7406L33.2846 30.0254C33.4433 30.0652 33.6099 30.1242 33.7599 30.1982C33.9802 30.3069 34.1626 30.449 34.2637 30.5925C34.3236 30.6776 34.3449 30.7816 34.3228 30.8814C34.3007 30.9812 34.237 31.0687 34.1458 31.1247C34.0545 31.1807 33.9432 31.2005 33.8363 31.1799C33.7294 31.1592 33.6356 31.0998 33.5755 31.0147C33.5374 30.9605 33.4584 30.9188 33.3752 30.8778C33.2105 30.7966 33.0141 30.7365 32.8797 30.7365C32.4714 30.7365 32.1191 30.9889 32.1191 31.3291C32.1191 31.6694 32.4714 31.9218 32.8797 31.9218C33.7668 31.9218 34.4637 32.5436 34.4637 33.283C34.4637 33.9003 33.9771 34.4364 33.2996 34.596L33.3054 34.8166C33.308 34.9184 33.2671 35.0171 33.1918 35.0909C33.1165 35.1647 33.0129 35.2076 32.9038 35.2102C32.7946 35.2126 32.6889 35.1745 32.6098 35.1042C32.5307 35.0339 32.4848 34.9372 32.4821 34.8353L32.4761 34.6056C32.1423 34.5349 31.8994 34.3686 31.6165 34.1198C31.4511 33.9744 31.4432 33.7309 31.5991 33.5765C31.7549 33.4222 32.0157 33.4149 32.1811 33.5603C32.3973 33.7504 32.5614 33.8757 32.8797 33.8757C33.2878 33.8757 33.6402 33.6229 33.6402 33.283C33.6402 32.9428 33.2878 32.6904 32.8797 32.6904C31.9925 32.6904 31.2956 32.0686 31.2956 31.3291C31.2956 30.711 31.7825 30.175 32.4606 30.0158ZM15.4074 13.426C16.9181 13.426 18.1436 14.5689 18.1436 15.9798C18.1436 17.3907 16.9181 18.5336 15.4074 18.5336C13.8957 18.5336 12.6702 17.3907 12.6702 15.9798C12.6702 14.5689 13.8957 13.426 15.4074 13.426ZM15.4074 14.1946C14.3506 14.1946 13.4938 14.9935 13.4938 15.9798C13.4938 16.9661 14.3506 17.765 15.4074 17.765C16.4634 17.765 17.3201 16.9661 17.3201 15.9798C17.3201 14.9936 16.4634 14.1946 15.4074 14.1946ZM15.6795 17.432C15.6332 17.5243 15.5496 17.5957 15.447 17.6306C15.3444 17.6654 15.2312 17.6608 15.1322 17.6178C15.0332 17.5746 14.9567 17.4966 14.9194 17.4008C14.8821 17.305 14.887 17.1993 14.9332 17.1069L15.3045 16.3641H14.8628C14.7936 16.3641 14.7255 16.3478 14.6648 16.3167C14.6041 16.2856 14.5527 16.2408 14.5155 16.1863C14.4783 16.1317 14.4565 16.0694 14.452 16.0049C14.4474 15.9404 14.4604 15.8759 14.4897 15.8173L15.1344 14.5277C15.1806 14.4353 15.2642 14.3639 15.3668 14.329C15.4694 14.2942 15.5827 14.2988 15.6816 14.3419C15.7806 14.385 15.8571 14.463 15.8944 14.5588C15.9318 14.6546 15.9268 14.7602 15.8807 14.8526L15.5094 15.5955H15.951C16.0202 15.5955 16.0884 15.6118 16.1491 15.6429C16.2098 15.674 16.2611 15.7188 16.2984 15.7733C16.3355 15.8278 16.3574 15.8902 16.3619 15.9547C16.3664 16.0192 16.3535 16.0837 16.3242 16.1423L15.6795 17.432ZM29.4535 27.0899C29.6808 27.0899 29.8653 27.2621 29.8653 27.4743C29.8653 27.6863 29.6808 27.8586 29.4535 27.8586H23.5294C23.3022 27.8586 23.1176 27.6863 23.1176 27.4743C23.1176 27.2621 23.3022 27.0899 23.5294 27.0899H29.4535ZM21.4021 15.5955C21.6294 15.5955 21.8139 15.7677 21.8139 15.9798C21.8139 16.1919 21.6294 16.3641 21.4021 16.3641H20.1039C19.8766 16.3641 19.6921 16.1919 19.6921 15.9798C19.6921 15.7677 19.8766 15.5955 20.1039 15.5955H21.4021ZM19.9372 19.6645C20.0144 19.7366 20.0578 19.8343 20.0578 19.9362C20.0579 20.0381 20.0146 20.1359 19.9375 20.208C19.8603 20.2801 19.7555 20.3206 19.6464 20.3206C19.5372 20.3207 19.4324 20.2803 19.3551 20.2083L18.4369 19.3521C18.3597 19.2801 18.3163 19.1823 18.3163 19.0804C18.3162 18.9785 18.3595 18.8808 18.4366 18.8086C18.5139 18.7366 18.6186 18.6961 18.7278 18.696C18.837 18.696 18.9417 18.7364 19.019 18.8084L19.9372 19.6645ZM29.4535 19.2642C29.6808 19.2642 29.8653 19.4363 29.8653 19.6485C29.8653 19.8606 29.6808 20.0328 29.4535 20.0328H21.1347C20.9075 20.0328 20.7229 19.8606 20.7229 19.6485C20.7229 19.4363 20.9075 19.2642 21.1347 19.2642H29.4535ZM29.4535 24.4809C29.6808 24.4809 29.8653 24.6532 29.8653 24.8653C29.8653 25.0774 29.6808 25.2496 29.4535 25.2496H17.6053C17.3781 25.2496 17.1935 25.0774 17.1935 24.8653C17.1935 24.6532 17.3781 24.4809 17.6053 24.4809H29.4535ZM29.4535 21.872C29.6808 21.872 29.8653 22.0442 29.8653 22.2563C29.8653 22.4684 29.6808 22.6406 29.4535 22.6406H19.37C19.1428 22.6406 18.9582 22.4684 18.9582 22.2563C18.9582 22.0442 19.1428 21.872 19.37 21.872H29.4535ZM13.347 21.2247C13.2929 21.2249 13.2411 21.245 13.2028 21.2807C13.1646 21.3164 13.143 21.3648 13.1428 21.4153V22.6566C13.1428 22.7617 13.2346 22.848 13.347 22.848H13.9806C14.0898 22.848 14.1945 22.8885 14.2718 22.9606C14.349 23.0326 14.3924 23.1304 14.3924 23.2323V23.8089C14.3924 23.8956 14.4689 23.9665 14.5621 23.9665H16.2518C16.3449 23.9665 16.4215 23.8956 16.4215 23.8089V23.2323C16.4215 23.1304 16.4649 23.0326 16.5421 22.9606C16.6193 22.8885 16.724 22.848 16.8332 22.848H17.466C17.5203 22.8479 17.5724 22.8277 17.6108 22.7918C17.6493 22.7559 17.6709 22.7073 17.6711 22.6566V21.4153C17.6711 21.3104 17.5786 21.2247 17.466 21.2247H13.347ZM14.9952 10.3843C14.9952 10.1722 15.1796 10 15.4069 10C15.6342 10 15.8187 10.1722 15.8187 10.3843V11.5951C15.8187 11.8073 15.6342 11.9794 15.4069 11.9794C15.1796 11.9794 14.9952 11.8073 14.9952 11.5951V10.3843ZM19.3551 11.7513C19.4324 11.6793 19.5372 11.6389 19.6464 11.639C19.7555 11.639 19.8603 11.6795 19.9375 11.7516C20.0146 11.8237 20.0579 11.9215 20.0578 12.0234C20.0578 12.1253 20.0144 12.223 19.9372 12.2951L19.019 13.1513C18.9417 13.2232 18.837 13.2636 18.7278 13.2636C18.6186 13.2635 18.5139 13.223 18.4366 13.151C18.3595 13.0788 18.3162 12.9811 18.3163 12.8792C18.3164 12.7773 18.3597 12.6795 18.4369 12.6075L19.3551 11.7513ZM10.8765 12.295C10.7994 12.2228 10.756 12.1251 10.756 12.0232C10.756 11.9213 10.7994 11.8235 10.8765 11.7514C10.9538 11.6794 11.0585 11.639 11.1677 11.639C11.2769 11.639 11.3816 11.6794 11.4589 11.7514L12.3762 12.6076C12.5369 12.7576 12.5369 13.0011 12.3762 13.1511C12.2155 13.3011 11.9545 13.3011 11.7939 13.1511L10.8765 12.295ZM9.41176 16.3641C9.18453 16.3641 9 16.1919 9 15.9798C9 15.7677 9.18453 15.5955 9.41176 15.5955H10.7091C10.9364 15.5955 11.1208 15.7677 11.1208 15.9798C11.1208 16.1919 10.9364 16.3641 10.7091 16.3641H9.41176ZM11.4589 20.2081C11.3816 20.2802 11.2769 20.3206 11.1677 20.3206C11.0585 20.3206 10.9538 20.2802 10.8765 20.2081C10.7994 20.136 10.756 20.0383 10.756 19.9364C10.756 19.8345 10.7994 19.7368 10.8765 19.6647L11.7939 18.8085C11.8711 18.7365 11.9758 18.696 12.085 18.696C12.1942 18.696 12.2989 18.7365 12.3762 18.8085C12.4534 18.8806 12.4967 18.9784 12.4967 19.0803C12.4967 19.1822 12.4534 19.2799 12.3762 19.352L11.4589 20.2081Z" fill="url(#paint0_linear_1186_123)"/>
<defs>
<linearGradient id="paint0_linear_1186_123" x1="38.0588" y1="10" x2="11.0017" y2="38.9898" gradientUnits="userSpaceOnUse">
<stop stop-color="#E93528"/>
<stop offset="1" stop-color="#F8BC16"/>
</linearGradient>
</defs>
</svg>
