<svg width="49" height="48" viewBox="0 0 49 48" fill="none" xmlns="http://www.w3.org/2000/svg">
<path d="M24.8438 0C38.0986 0 48.8438 10.7452 48.8438 24C48.8438 37.2548 38.0986 48 24.8438 48C11.5889 48 0.84375 37.2548 0.84375 24C0.84375 10.7452 11.5889 0 24.8438 0Z" fill="#282828"/>
<path d="M24.8438 0C38.0986 0 48.8438 10.7452 48.8438 24C48.8438 37.2548 38.0986 48 24.8438 48C11.5889 48 0.84375 37.2548 0.84375 24C0.84375 10.7452 11.5889 0 24.8438 0Z" stroke="#E5E7EB"/>
<path d="M36.3011 21.3465L33.7176 13.1651C33.4703 12.3823 32.6322 11.9465 31.8495 12.1938L30.9851 12.4668L30.8093 11.9103C30.5622 11.1275 29.7243 10.6916 28.9413 10.9389L14.8421 15.3914C14.6552 15.4498 14.4818 15.5448 14.3319 15.6708C14.182 15.7968 14.0586 15.9513 13.9689 16.1253C13.8782 16.2989 13.8229 16.4887 13.8062 16.6838C13.7895 16.8789 13.8116 17.0754 13.8715 17.2619L14.8358 20.2972L15.6288 20.0453L14.6644 17.01C14.638 16.9277 14.6282 16.841 14.6356 16.755C14.6429 16.6689 14.6673 16.5851 14.7073 16.5086C14.7469 16.4318 14.8013 16.3636 14.8674 16.308C14.9336 16.2524 15.0101 16.2105 15.0926 16.1847L29.1918 11.7323C29.274 11.706 29.3606 11.6964 29.4466 11.7039C29.5325 11.7114 29.6162 11.7358 29.6926 11.7758C29.7693 11.8154 29.8374 11.8699 29.8929 11.9359C29.9484 12.002 29.9902 12.0784 30.016 12.1608L30.1917 12.7173L17.7485 16.6468C16.9657 16.894 16.5299 17.732 16.7771 18.5148L17.3085 20.1975L18.1019 19.9469L17.5705 18.2644C17.4615 17.9189 17.6537 17.5493 17.9991 17.4402L32.1001 12.9872C32.4457 12.8782 32.8152 13.0704 32.9243 13.4157L35.5079 21.597C35.5607 21.7643 35.5452 21.9422 35.4643 22.0978C35.3835 22.2535 35.2466 22.3683 35.0794 22.4212L33.8666 22.8041L34.1171 23.5975L35.3299 23.2145C35.5166 23.1561 35.6898 23.0613 35.8396 22.9355C35.9894 22.8097 36.1127 22.6555 36.2025 22.4817C36.2932 22.3084 36.3486 22.1188 36.3655 21.924C36.3825 21.7291 36.3606 21.5328 36.3012 21.3465H36.3011Z" fill="#E93528"/>
<path d="M19.4785 18.6349L20.0033 20.2967L20.7967 20.0461L20.5225 19.1777L22.687 18.4941L23.2342 20.2273L24.0276 19.9766L23.2298 17.4502L19.4785 18.6349ZM27.0347 18.1941L28.8766 17.613L29.127 18.4067L27.2851 18.9878L27.0347 18.1941ZM29.7071 17.3507L31.549 16.7695L31.7994 17.5632L29.9575 18.1444L29.7071 17.3507Z" fill="#E93528"/>
<path d="M35.3881 27.4764C35.3881 26.6026 34.89 25.8433 34.163 25.4664H34.2716V21.9574C34.2716 20.7801 33.3138 19.8223 32.1366 19.8223H14.7641C13.5867 19.8223 12.6289 20.7801 12.6289 21.9574V32.9955C12.6289 34.1727 13.5867 35.1306 14.7641 35.1306H32.1364C33.3137 35.1306 34.2715 34.1727 34.2715 32.9955V29.4264C34.939 29.0324 35.3881 28.306 35.3881 27.4763V27.4764ZM33.4396 32.9955C33.4396 33.714 32.855 34.2986 32.1366 34.2986H14.7641C14.0455 34.2986 13.4609 33.714 13.4609 32.9955V21.9574C13.4609 21.2388 14.0455 20.6543 14.7641 20.6543H32.1364C32.855 20.6543 33.4395 21.2388 33.4395 21.9574V25.2355C33.3353 25.2208 33.2301 25.2133 33.1248 25.2131H30.2082C28.9602 25.2131 27.945 26.2284 27.945 27.4764C27.945 28.7244 28.9602 29.7396 30.2082 29.7396H33.1248C33.2317 29.7396 33.3367 29.7316 33.4396 29.7172V32.9955ZM33.1248 28.9076H30.2082C29.419 28.9076 28.777 28.2656 28.777 27.4764C28.777 26.6872 29.419 26.0451 30.2082 26.0451H33.1248C33.914 26.0451 34.5561 26.6872 34.5561 27.4764C34.5561 28.2656 33.914 28.9076 33.1248 28.9076Z" fill="#F8BC16"/>
<path d="M30.9327 27.0605H31.9071V27.8925H30.9327V27.0605ZM21.5746 30.5886H22.6166V31.4206H21.5746V30.5886ZM16.8516 30.5886H20.6273V31.4206H16.8516V30.5886Z" fill="#F8BC16"/>
</svg>
