<svg width="48" height="48" viewBox="0 0 48 48" fill="none" xmlns="http://www.w3.org/2000/svg">
<path d="M0 24C0 10.7452 10.7452 0 24 0C37.2548 0 48 10.7452 48 24C48 37.2548 37.2548 48 24 48C10.7452 48 0 37.2548 0 24Z" fill="#282828"/>
<path d="M35.6732 22.4768L33.0897 14.2955C32.8424 13.5127 32.0042 13.0768 31.2216 13.3241L30.3571 13.5972L30.1814 13.0407C29.9343 12.2578 29.0964 11.822 28.3133 12.0693L14.2141 16.5218C14.0273 16.5802 13.8538 16.6752 13.7039 16.8012C13.554 16.9272 13.4307 17.0817 13.3409 17.2557C13.2503 17.4293 13.195 17.6191 13.1783 17.8142C13.1615 18.0093 13.1837 18.2058 13.2435 18.3922L14.2079 21.4276L15.0008 21.1756L14.0365 18.1403C14.0101 18.0581 14.0003 17.9714 14.0076 17.8853C14.015 17.7993 14.0394 17.7155 14.0794 17.6389C14.1189 17.5621 14.1734 17.494 14.2395 17.4384C14.3057 17.3828 14.3822 17.3409 14.4646 17.3151L28.5638 12.8626C28.6461 12.8364 28.7327 12.8268 28.8186 12.8342C28.9046 12.8417 28.9883 12.8662 29.0647 12.9062C29.1414 12.9458 29.2094 13.0002 29.2649 13.0663C29.3204 13.1324 29.3623 13.2088 29.388 13.2912L29.5638 13.8477L17.1206 17.7772C16.3378 18.0244 15.902 18.8624 16.1492 19.6452L16.6806 21.3278L17.474 21.0773L16.9426 19.3947C16.8335 19.0493 17.0258 18.6796 17.3711 18.5706L31.4722 14.1175C31.8178 14.0086 32.1873 14.2007 32.2963 14.5461L34.8799 22.7274C34.9328 22.8947 34.9173 23.0725 34.8364 23.2282C34.7555 23.3838 34.6187 23.4987 34.4515 23.5515L33.2387 23.9345L33.4892 24.7278L34.702 24.3449C34.8886 24.2865 35.0619 24.1917 35.2116 24.0659C35.3614 23.9401 35.4848 23.7858 35.5745 23.6121C35.6652 23.4388 35.7207 23.2492 35.7376 23.0543C35.7546 22.8595 35.7327 22.6632 35.6733 22.4768H35.6732Z" fill="#E93528"/>
<path d="M18.8506 19.7653L19.3754 21.4271L20.1688 21.1765L19.8946 20.308L22.059 19.6245L22.6063 21.3576L23.3997 21.107L22.6019 18.5806L18.8506 19.7653ZM26.4067 19.3245L28.2487 18.7434L28.4991 19.5371L26.6572 20.1182L26.4067 19.3245ZM29.0791 18.481L30.9211 17.8999L31.1715 18.6936L29.3296 19.2748L29.0791 18.481Z" fill="#E93528"/>
<path d="M34.7592 28.6068C34.7592 27.7329 34.2611 26.9737 33.5341 26.5967H33.6427V23.0877C33.6427 21.9105 32.6849 20.9526 31.5076 20.9526H14.1352C12.9578 20.9526 12 21.9105 12 23.0877V34.1258C12 35.3031 12.9578 36.2609 14.1352 36.2609H31.5075C32.6848 36.2609 33.6426 35.3031 33.6426 34.1258V30.5568C34.3101 30.1628 34.7592 29.4364 34.7592 28.6067V28.6068ZM32.8107 34.1258C32.8107 34.8443 32.2261 35.4289 31.5076 35.4289H14.1352C13.4166 35.4289 12.832 34.8443 12.832 34.1258V23.0877C12.832 22.3692 13.4166 21.7846 14.1352 21.7846H31.5075C32.226 21.7846 32.8106 22.3692 32.8106 23.0877V26.3659C32.7064 26.3511 32.6012 26.3436 32.4959 26.3435H29.5793C28.3313 26.3435 27.3161 27.3588 27.3161 28.6068C27.3161 29.8548 28.3313 30.87 29.5793 30.87H32.4959C32.6028 30.87 32.7078 30.862 32.8107 30.8476V34.1258ZM32.4959 30.038H29.5793C28.7901 30.038 28.1481 29.396 28.1481 28.6068C28.1481 27.8176 28.7901 27.1755 29.5793 27.1755H32.4959C33.2851 27.1755 33.9272 27.8176 33.9272 28.6068C33.9272 29.396 33.2851 30.038 32.4959 30.038Z" fill="#F8BC16"/>
<path d="M30.3037 28.1909H31.2781V29.0229H30.3037V28.1909ZM20.9457 31.719H21.9877V32.551H20.9457V31.719ZM16.2227 31.719H19.9984V32.551H16.2227V31.719Z" fill="#F8BC16"/>
</svg>
