<svg width="20" height="17" viewBox="0 0 20 17" fill="none" xmlns="http://www.w3.org/2000/svg">
<path d="M17.9441 4.42613C17.9568 4.60379 17.9568 4.78148 17.9568 4.95914C17.9568 10.3779 13.8325 16.6216 6.29441 16.6216C3.97207 16.6216 1.81473 15.9489 0 14.7815C0.329961 14.8195 0.647187 14.8322 0.989844 14.8322C2.90605 14.8322 4.67004 14.185 6.07867 13.081C4.27664 13.0429 2.76648 11.8627 2.24617 10.2383C2.5 10.2764 2.75379 10.3018 3.02031 10.3018C3.38832 10.3018 3.75637 10.251 4.09898 10.1622C2.22082 9.78144 0.812148 8.13172 0.812148 6.13934V6.08859C1.35781 6.39316 1.99238 6.58352 2.66492 6.60887C1.56086 5.87281 0.837539 4.61648 0.837539 3.19516C0.837539 2.43375 1.04055 1.73578 1.3959 1.12664C3.41367 3.61395 6.44668 5.23828 9.84766 5.41598C9.78422 5.11141 9.74613 4.79418 9.74613 4.47691C9.74613 2.21801 11.5736 0.37793 13.8451 0.37793C15.0253 0.37793 16.0913 0.872852 16.84 1.67234C17.7664 1.49469 18.6547 1.15203 19.4416 0.6825C19.137 1.6343 18.4898 2.43379 17.6395 2.94137C18.4644 2.85258 19.2639 2.6241 19.9999 2.30687C19.4416 3.11902 18.7436 3.84234 17.9441 4.42613Z" fill="#9CA3AF"/>
</svg>
