<svg width="12" height="16" viewBox="0 0 12 16" fill="none" xmlns="http://www.w3.org/2000/svg">
<path d="M9.91907 1.39403C10.1034 0.965908 9.96594 0.465908 9.58782 0.190908C9.20969 -0.0840923 8.69407 -0.0590923 8.34094 0.247158L0.340944 7.24716C0.0284438 7.52216 -0.0840562 7.96278 0.0628188 8.35028C0.209694 8.73778 0.584694 9.00028 1.00032 9.00028H4.48469L2.08157 14.6065C1.89719 15.0347 2.03469 15.5347 2.41282 15.8097C2.79094 16.0847 3.30657 16.0597 3.65969 15.7534L11.6597 8.75341C11.9722 8.47841 12.0847 8.03778 11.9378 7.65028C11.7909 7.26278 11.4191 7.00341 11.0003 7.00341H7.51594L9.91907 1.39403Z" fill="white"/>
</svg>
